<mxfile host="app.diagrams.net" modified="2022-01-18T13:21:25.801Z" agent="5.0 (Windows NT 10.0; Win64; x64) AppleWebKit/537.36 (KHTML, like Gecko) Chrome/97.0.4692.71 Safari/537.36 Edg/97.0.1072.62" etag="SAwxmzbTWEJyBmTs0BRs" version="16.2.7" type="github" pages="3">
  <diagram id="PJU4n7mO_tyWqtR5L4p4" name="Overall">
    <mxGraphModel dx="1502" dy="835" grid="0" gridSize="10" guides="1" tooltips="1" connect="1" arrows="1" fold="1" page="1" pageScale="1" pageWidth="850" pageHeight="1100" math="0" shadow="0">
      <root>
        <mxCell id="0" />
        <mxCell id="1" parent="0" />
        <mxCell id="hZ53Xy33LP4GwxtxV8D0-13" style="edgeStyle=orthogonalEdgeStyle;rounded=0;orthogonalLoop=1;jettySize=auto;html=1;entryX=0.5;entryY=0;entryDx=0;entryDy=0;fontFamily=Verdana;" parent="1" source="hZ53Xy33LP4GwxtxV8D0-3" target="hZ53Xy33LP4GwxtxV8D0-12" edge="1">
          <mxGeometry relative="1" as="geometry" />
        </mxCell>
        <mxCell id="hZ53Xy33LP4GwxtxV8D0-22" value="Generate" style="edgeLabel;html=1;align=center;verticalAlign=middle;resizable=0;points=[];fontFamily=Verdana;" parent="hZ53Xy33LP4GwxtxV8D0-13" vertex="1" connectable="0">
          <mxGeometry x="-0.1824" relative="1" as="geometry">
            <mxPoint as="offset" />
          </mxGeometry>
        </mxCell>
        <mxCell id="hZ53Xy33LP4GwxtxV8D0-3" value="CI Pipeline" style="sketch=0;outlineConnect=0;fontColor=#232F3E;gradientColor=none;fillColor=#4285F4;strokeColor=none;dashed=0;verticalLabelPosition=middle;verticalAlign=middle;align=left;html=1;fontSize=12;fontStyle=0;aspect=fixed;pointerEvents=1;shape=mxgraph.aws4.iot_analytics_pipeline;labelPosition=right;" parent="1" vertex="1">
          <mxGeometry x="359" y="210" width="78" height="42" as="geometry" />
        </mxCell>
        <mxCell id="hZ53Xy33LP4GwxtxV8D0-7" style="edgeStyle=orthogonalEdgeStyle;rounded=0;orthogonalLoop=1;jettySize=auto;html=1;exitX=1;exitY=0.5;exitDx=0;exitDy=0;" parent="1" source="hZ53Xy33LP4GwxtxV8D0-4" target="hZ53Xy33LP4GwxtxV8D0-3" edge="1">
          <mxGeometry relative="1" as="geometry" />
        </mxCell>
        <mxCell id="hZ53Xy33LP4GwxtxV8D0-11" value="master check-in" style="edgeLabel;html=1;align=center;verticalAlign=middle;resizable=0;points=[];fontFamily=Verdana;" parent="hZ53Xy33LP4GwxtxV8D0-7" vertex="1" connectable="0">
          <mxGeometry x="0.119" y="-1" relative="1" as="geometry">
            <mxPoint as="offset" />
          </mxGeometry>
        </mxCell>
        <mxCell id="hZ53Xy33LP4GwxtxV8D0-17" style="edgeStyle=orthogonalEdgeStyle;rounded=0;orthogonalLoop=1;jettySize=auto;html=1;exitX=0;exitY=0.5;exitDx=0;exitDy=0;fontFamily=Verdana;" parent="1" source="hZ53Xy33LP4GwxtxV8D0-4" target="hZ53Xy33LP4GwxtxV8D0-8" edge="1">
          <mxGeometry relative="1" as="geometry" />
        </mxCell>
        <mxCell id="hZ53Xy33LP4GwxtxV8D0-4" value="XPay Repo&lt;br&gt;Component code" style="shape=image;html=1;verticalAlign=top;verticalLabelPosition=bottom;labelBackgroundColor=#ffffff;imageAspect=0;aspect=fixed;image=https://cdn0.iconfinder.com/data/icons/octicons/1024/repo-forked-128.png" parent="1" vertex="1">
          <mxGeometry x="279" y="80" width="60" height="60" as="geometry" />
        </mxCell>
        <mxCell id="hZ53Xy33LP4GwxtxV8D0-8" value="Gated Pipeline" style="sketch=0;outlineConnect=0;fontColor=#232F3E;gradientColor=none;fillColor=#4285F4;strokeColor=none;dashed=0;verticalLabelPosition=bottom;verticalAlign=top;align=center;html=1;fontSize=12;fontStyle=0;aspect=fixed;pointerEvents=1;shape=mxgraph.aws4.iot_analytics_pipeline;" parent="1" vertex="1">
          <mxGeometry x="190" y="210" width="78" height="42" as="geometry" />
        </mxCell>
        <mxCell id="hZ53Xy33LP4GwxtxV8D0-19" style="edgeStyle=orthogonalEdgeStyle;rounded=0;orthogonalLoop=1;jettySize=auto;html=1;exitX=0.5;exitY=1;exitDx=0;exitDy=0;fontFamily=Verdana;exitPerimeter=0;" parent="1" source="1XU-NGi4mXCouxgT5Fqe-3" target="hZ53Xy33LP4GwxtxV8D0-15" edge="1">
          <mxGeometry relative="1" as="geometry" />
        </mxCell>
        <mxCell id="hZ53Xy33LP4GwxtxV8D0-21" value="Consume" style="edgeLabel;html=1;align=center;verticalAlign=middle;resizable=0;points=[];fontFamily=Verdana;" parent="hZ53Xy33LP4GwxtxV8D0-19" vertex="1" connectable="0">
          <mxGeometry x="0.1299" y="1" relative="1" as="geometry">
            <mxPoint as="offset" />
          </mxGeometry>
        </mxCell>
        <mxCell id="1XU-NGi4mXCouxgT5Fqe-2" style="edgeStyle=orthogonalEdgeStyle;rounded=0;orthogonalLoop=1;jettySize=auto;html=1;exitX=1;exitY=0.5;exitDx=0;exitDy=0;fontFamily=Helvetica;fontSize=18;fontColor=#FF8000;" parent="1" source="hZ53Xy33LP4GwxtxV8D0-12" target="1XU-NGi4mXCouxgT5Fqe-1" edge="1">
          <mxGeometry relative="1" as="geometry" />
        </mxCell>
        <mxCell id="hZ53Xy33LP4GwxtxV8D0-12" value="Component.zip" style="editableCssRules=.*;shape=image;verticalLabelPosition=bottom;labelBackgroundColor=#ffffff;verticalAlign=top;aspect=fixed;imageAspect=0;image=data:image/svg+xml,PHN2ZyB4bWxucz0iaHR0cDovL3d3dy53My5vcmcvMjAwMC9zdmciIHhtbG5zOnY9Imh0dHBzOi8vdmVjdGEuaW8vbmFubyIgd2lkdGg9IjIxLjk5OTAwMDU0OTMxNjQwNiIgaGVpZ2h0PSIyMC4zOTM5OTkwOTk3MzE0NDUiIHZpZXdCb3g9IjAgMCAyMS45OTkwMDA1NDkzMTY0MDYgMjAuMzkzOTk5MDk5NzMxNDQ1Ij4mI3hhOwk8c3R5bGUgdHlwZT0idGV4dC9jc3MiPiYjeGE7CS5zdDB7ZmlsbDojNDI4NWY0O2ZpbGwtcnVsZTpldmVub2RkfSYjeGE7CTwvc3R5bGU+JiN4YTsJPHBhdGggY2xhc3M9InN0MCIgZD0iTTUgMHYyLjQ1OEwxLjk5OSA0LjE5N3YxMi4wMUw1IDE3LjkzOHYyLjQ1NmwtNS0yLjg4N1YyLjg4NnptMTIgMGw0Ljk5OSAyLjg4NnYxNC42MjFMMTcgMjAuMzk0di0yLjQ1NmwzLTEuNzMxVjQuMTk3bC0zLTEuNzM5em0tNi4wMTYgNi42NzNsMi45NDctMS42NDYtMi45NDctMS42NDYtMi45NDcgMS42NDZ6bTMuMjY4LTEuMDk2bC0yLjg3MSAxLjY3OHYzLjI4N2wyLjg3MS0xLjY3NnpNNy43NzMgOC44NjZsMi44NzEgMS42NzRWNy4yNTZMNy43NzMgNS41Nzd6bS0uMjEyIDMuODc4bDIuODItMS42NDYtMi44Mi0xLjY0Ni0yLjgyIDEuNjQ2em0zLjEzMi0xLjA5OGwtMi44NzEgMS42Nzh2My4yODdsMi44NzEtMS42NzZ6bS02LjI2NCAzLjI4OUw3LjMgMTYuNjA5di0zLjI4NWwtMi44NzEtMS42Nzl6bTEwLjAyOS0yLjE5MWwyLjgyLTEuNjQ2LTIuODItMS42NDYtMi44MiAxLjY0NnptMy4xMzItMS4wOThsLTIuODcxIDEuNjc4djMuMjg3bDIuODcxLTEuNjc2em0tNi4yNjQgMy4yODlsMi44NzEgMS42NzR2LTMuMjg1bC0yLjg3MS0xLjY3OXoiLz4mI3hhOzwvc3ZnPg==;fontFamily=Verdana;fillColor=#0000FF;" parent="1" vertex="1">
          <mxGeometry x="359.22" y="310" width="77.78" height="70" as="geometry" />
        </mxCell>
        <mxCell id="hZ53Xy33LP4GwxtxV8D0-18" style="edgeStyle=orthogonalEdgeStyle;rounded=0;orthogonalLoop=1;jettySize=auto;html=1;exitX=1;exitY=0.5;exitDx=0;exitDy=0;fontFamily=Verdana;" parent="1" source="hZ53Xy33LP4GwxtxV8D0-14" target="hZ53Xy33LP4GwxtxV8D0-15" edge="1">
          <mxGeometry relative="1" as="geometry" />
        </mxCell>
        <mxCell id="hZ53Xy33LP4GwxtxV8D0-23" value="Manual&lt;br&gt;On demand" style="edgeLabel;html=1;align=center;verticalAlign=middle;resizable=0;points=[];fontFamily=Verdana;" parent="hZ53Xy33LP4GwxtxV8D0-18" vertex="1" connectable="0">
          <mxGeometry x="-0.2172" relative="1" as="geometry">
            <mxPoint as="offset" />
          </mxGeometry>
        </mxCell>
        <mxCell id="Yy7NdgJhlSqKZXRxDY5G-7" style="edgeStyle=orthogonalEdgeStyle;rounded=0;orthogonalLoop=1;jettySize=auto;html=1;exitX=1;exitY=1;exitDx=0;exitDy=0;fontFamily=Verdana;fontSize=12;" parent="1" source="hZ53Xy33LP4GwxtxV8D0-14" target="Yy7NdgJhlSqKZXRxDY5G-4" edge="1">
          <mxGeometry relative="1" as="geometry">
            <mxPoint x="438" y="739" as="targetPoint" />
            <Array as="points">
              <mxPoint x="250" y="739" />
            </Array>
          </mxGeometry>
        </mxCell>
        <mxCell id="Yy7NdgJhlSqKZXRxDY5G-8" value="&lt;span style=&quot;font-size: 11px&quot;&gt;Manual&lt;/span&gt;&lt;br style=&quot;font-size: 11px&quot;&gt;&lt;span style=&quot;font-size: 11px&quot;&gt;On demand&lt;/span&gt;" style="edgeLabel;html=1;align=center;verticalAlign=middle;resizable=0;points=[];fontSize=12;fontFamily=Verdana;" parent="Yy7NdgJhlSqKZXRxDY5G-7" vertex="1" connectable="0">
          <mxGeometry x="0.2563" y="-1" relative="1" as="geometry">
            <mxPoint as="offset" />
          </mxGeometry>
        </mxCell>
        <mxCell id="hZ53Xy33LP4GwxtxV8D0-14" value="Edge Repo&lt;br&gt;edgeinternal.es.components" style="shape=image;html=1;verticalAlign=top;verticalLabelPosition=bottom;labelBackgroundColor=#ffffff;imageAspect=0;aspect=fixed;image=https://cdn0.iconfinder.com/data/icons/octicons/1024/repo-forked-128.png" parent="1" vertex="1">
          <mxGeometry x="190" y="510" width="60" height="60" as="geometry" />
        </mxCell>
        <mxCell id="Yy7NdgJhlSqKZXRxDY5G-2" style="edgeStyle=orthogonalEdgeStyle;rounded=0;orthogonalLoop=1;jettySize=auto;html=1;entryX=0;entryY=0.5;entryDx=0;entryDy=0;fontFamily=Verdana;fontSize=12;" parent="1" source="hZ53Xy33LP4GwxtxV8D0-15" target="Yy7NdgJhlSqKZXRxDY5G-1" edge="1">
          <mxGeometry relative="1" as="geometry" />
        </mxCell>
        <mxCell id="Yy7NdgJhlSqKZXRxDY5G-3" value="Sign" style="edgeLabel;html=1;align=center;verticalAlign=middle;resizable=0;points=[];fontSize=12;fontFamily=Verdana;" parent="Yy7NdgJhlSqKZXRxDY5G-2" vertex="1" connectable="0">
          <mxGeometry x="-0.2834" y="1" relative="1" as="geometry">
            <mxPoint as="offset" />
          </mxGeometry>
        </mxCell>
        <mxCell id="hZ53Xy33LP4GwxtxV8D0-15" value="CRX Build Pipeline" style="sketch=0;outlineConnect=0;fontColor=#232F3E;gradientColor=none;fillColor=#4285F4;strokeColor=none;dashed=0;verticalLabelPosition=bottom;verticalAlign=top;align=center;html=1;fontSize=12;fontStyle=0;aspect=fixed;pointerEvents=1;shape=mxgraph.aws4.iot_analytics_pipeline;" parent="1" vertex="1">
          <mxGeometry x="359" y="519" width="78" height="42" as="geometry" />
        </mxCell>
        <mxCell id="Yy7NdgJhlSqKZXRxDY5G-9" style="edgeStyle=orthogonalEdgeStyle;rounded=0;orthogonalLoop=1;jettySize=auto;html=1;fontFamily=Verdana;fontSize=12;" parent="1" source="Yy7NdgJhlSqKZXRxDY5G-1" target="Yy7NdgJhlSqKZXRxDY5G-4" edge="1">
          <mxGeometry relative="1" as="geometry" />
        </mxCell>
        <mxCell id="Yy7NdgJhlSqKZXRxDY5G-10" value="Consume" style="edgeLabel;html=1;align=center;verticalAlign=middle;resizable=0;points=[];fontSize=12;fontFamily=Verdana;" parent="Yy7NdgJhlSqKZXRxDY5G-9" vertex="1" connectable="0">
          <mxGeometry x="0.1642" y="1" relative="1" as="geometry">
            <mxPoint as="offset" />
          </mxGeometry>
        </mxCell>
        <mxCell id="Yy7NdgJhlSqKZXRxDY5G-1" value="Component.crx" style="editableCssRules=.*;shape=image;verticalLabelPosition=bottom;labelBackgroundColor=#ffffff;verticalAlign=top;aspect=fixed;imageAspect=0;image=data:image/svg+xml,PHN2ZyB4bWxucz0iaHR0cDovL3d3dy53My5vcmcvMjAwMC9zdmciIHhtbG5zOnY9Imh0dHBzOi8vdmVjdGEuaW8vbmFubyIgd2lkdGg9IjIxLjk5OTAwMDU0OTMxNjQwNiIgaGVpZ2h0PSIyMC4zOTM5OTkwOTk3MzE0NDUiIHZpZXdCb3g9IjAgMCAyMS45OTkwMDA1NDkzMTY0MDYgMjAuMzkzOTk5MDk5NzMxNDQ1Ij4mI3hhOwk8c3R5bGUgdHlwZT0idGV4dC9jc3MiPiYjeGE7CS5zdDB7ZmlsbDojNDI4NWY0O2ZpbGwtcnVsZTpldmVub2RkfSYjeGE7CTwvc3R5bGU+JiN4YTsJPHBhdGggY2xhc3M9InN0MCIgZD0iTTUgMHYyLjQ1OEwxLjk5OSA0LjE5N3YxMi4wMUw1IDE3LjkzOHYyLjQ1NmwtNS0yLjg4N1YyLjg4NnptMTIgMGw0Ljk5OSAyLjg4NnYxNC42MjFMMTcgMjAuMzk0di0yLjQ1NmwzLTEuNzMxVjQuMTk3bC0zLTEuNzM5em0tNi4wMTYgNi42NzNsMi45NDctMS42NDYtMi45NDctMS42NDYtMi45NDcgMS42NDZ6bTMuMjY4LTEuMDk2bC0yLjg3MSAxLjY3OHYzLjI4N2wyLjg3MS0xLjY3NnpNNy43NzMgOC44NjZsMi44NzEgMS42NzRWNy4yNTZMNy43NzMgNS41Nzd6bS0uMjEyIDMuODc4bDIuODItMS42NDYtMi44Mi0xLjY0Ni0yLjgyIDEuNjQ2em0zLjEzMi0xLjA5OGwtMi44NzEgMS42Nzh2My4yODdsMi44NzEtMS42NzZ6bS02LjI2NCAzLjI4OUw3LjMgMTYuNjA5di0zLjI4NWwtMi44NzEtMS42Nzl6bTEwLjAyOS0yLjE5MWwyLjgyLTEuNjQ2LTIuODItMS42NDYtMi44MiAxLjY0NnptMy4xMzItMS4wOThsLTIuODcxIDEuNjc4djMuMjg3bDIuODcxLTEuNjc2em0tNi4yNjQgMy4yODlsMi44NzEgMS42NzR2LTMuMjg1bC0yLjg3MS0xLjY3OXoiLz4mI3hhOzwvc3ZnPg==;fontFamily=Verdana;fillColor=#0000FF;" parent="1" vertex="1">
          <mxGeometry x="554" y="505" width="77.78" height="70" as="geometry" />
        </mxCell>
        <mxCell id="Yy7NdgJhlSqKZXRxDY5G-4" value="CRX Release Pipeline" style="sketch=0;outlineConnect=0;fontColor=#232F3E;gradientColor=none;fillColor=#4285F4;strokeColor=none;dashed=0;verticalLabelPosition=bottom;verticalAlign=top;align=center;html=1;fontSize=12;fontStyle=0;aspect=fixed;pointerEvents=1;shape=mxgraph.aws4.iot_analytics_pipeline;" parent="1" vertex="1">
          <mxGeometry x="553.78" y="718" width="78" height="42" as="geometry" />
        </mxCell>
        <mxCell id="1XU-NGi4mXCouxgT5Fqe-4" style="edgeStyle=orthogonalEdgeStyle;rounded=0;orthogonalLoop=1;jettySize=auto;html=1;entryX=0;entryY=0.5;entryDx=0;entryDy=0;entryPerimeter=0;fontFamily=Helvetica;fontSize=18;fontColor=#FF8000;" parent="1" source="1XU-NGi4mXCouxgT5Fqe-1" target="1XU-NGi4mXCouxgT5Fqe-3" edge="1">
          <mxGeometry relative="1" as="geometry" />
        </mxCell>
        <mxCell id="1XU-NGi4mXCouxgT5Fqe-1" value="Release" style="sketch=0;outlineConnect=0;fontColor=#232F3E;gradientColor=none;fillColor=#4285F4;strokeColor=none;dashed=0;verticalLabelPosition=top;verticalAlign=bottom;align=center;html=1;fontSize=12;fontStyle=0;aspect=fixed;pointerEvents=1;shape=mxgraph.aws4.iot_analytics_pipeline;labelPosition=center;" parent="1" vertex="1">
          <mxGeometry x="506" y="324" width="78" height="42" as="geometry" />
        </mxCell>
        <mxCell id="1XU-NGi4mXCouxgT5Fqe-3" value="Azure blob" style="html=1;strokeColor=none;fillColor=#0079D6;labelPosition=center;verticalLabelPosition=middle;verticalAlign=top;align=center;fontSize=12;outlineConnect=0;spacingTop=-6;fontColor=#FFFFFF;sketch=0;shape=mxgraph.sitemap.cloud;rounded=1;shadow=0;glass=0;labelBorderColor=none;fontFamily=Helvetica;" parent="1" vertex="1">
          <mxGeometry x="655" y="310" width="120" height="70" as="geometry" />
        </mxCell>
      </root>
    </mxGraphModel>
  </diagram>
  <diagram id="-P9GrZFYxZjrkA4sCNLT" name="CRX Build pipeline">
    <mxGraphModel dx="1374" dy="922" grid="0" gridSize="10" guides="1" tooltips="1" connect="1" arrows="1" fold="1" page="1" pageScale="1" pageWidth="850" pageHeight="1100" math="0" shadow="0">
      <root>
        <mxCell id="sZe8FNBouu0Gg12doHUx-0" />
        <mxCell id="sZe8FNBouu0Gg12doHUx-1" parent="sZe8FNBouu0Gg12doHUx-0" />
        <mxCell id="1rEJnnnodCpan0bJ0dBE-5" style="edgeStyle=orthogonalEdgeStyle;rounded=0;orthogonalLoop=1;jettySize=auto;html=1;entryX=0;entryY=0.25;entryDx=0;entryDy=0;" parent="sZe8FNBouu0Gg12doHUx-1" source="25JST4IFipWogcMkS16e-0" target="1rEJnnnodCpan0bJ0dBE-0" edge="1">
          <mxGeometry relative="1" as="geometry" />
        </mxCell>
        <mxCell id="25JST4IFipWogcMkS16e-0" value="Edge Repo&lt;br&gt;chromium.src" style="shape=image;html=1;verticalAlign=top;verticalLabelPosition=bottom;labelBackgroundColor=#ffffff;imageAspect=0;aspect=fixed;image=https://cdn0.iconfinder.com/data/icons/octicons/1024/repo-forked-128.png" parent="sZe8FNBouu0Gg12doHUx-1" vertex="1">
          <mxGeometry x="177.75" y="48" width="60" height="60" as="geometry" />
        </mxCell>
        <mxCell id="1rEJnnnodCpan0bJ0dBE-3" style="edgeStyle=orthogonalEdgeStyle;rounded=0;orthogonalLoop=1;jettySize=auto;html=1;exitX=0.5;exitY=1;exitDx=0;exitDy=0;entryX=0.5;entryY=0;entryDx=0;entryDy=0;" parent="sZe8FNBouu0Gg12doHUx-1" source="1rEJnnnodCpan0bJ0dBE-0" target="1rEJnnnodCpan0bJ0dBE-6" edge="1">
          <mxGeometry relative="1" as="geometry">
            <mxPoint x="410.88" y="168" as="targetPoint" />
          </mxGeometry>
        </mxCell>
        <mxCell id="1rEJnnnodCpan0bJ0dBE-0" value="" style="strokeColor=#dddddd;shadow=1;strokeWidth=1;rounded=1;absoluteArcSize=1;arcSize=2;" parent="sZe8FNBouu0Gg12doHUx-1" vertex="1">
          <mxGeometry x="330.88" y="68" width="160" height="40" as="geometry" />
        </mxCell>
        <mxCell id="1rEJnnnodCpan0bJ0dBE-1" value="Build crx_tool" style="sketch=0;dashed=0;connectable=0;html=1;fillColor=#5184F3;strokeColor=none;shape=mxgraph.gcp2.hexIcon;prIcon=container_builder;part=1;labelPosition=right;verticalLabelPosition=middle;align=left;verticalAlign=middle;spacingLeft=5;fontColor=#999999;fontSize=12;" parent="1rEJnnnodCpan0bJ0dBE-0" vertex="1">
          <mxGeometry y="0.5" width="44" height="39" relative="1" as="geometry">
            <mxPoint x="5" y="-19.5" as="offset" />
          </mxGeometry>
        </mxCell>
        <mxCell id="1rEJnnnodCpan0bJ0dBE-8" style="edgeStyle=orthogonalEdgeStyle;rounded=0;orthogonalLoop=1;jettySize=auto;html=1;exitX=0.5;exitY=1;exitDx=0;exitDy=0;entryX=0.5;entryY=0;entryDx=0;entryDy=0;entryPerimeter=0;" parent="sZe8FNBouu0Gg12doHUx-1" source="1rEJnnnodCpan0bJ0dBE-6" target="1rEJnnnodCpan0bJ0dBE-7" edge="1">
          <mxGeometry relative="1" as="geometry" />
        </mxCell>
        <mxCell id="1rEJnnnodCpan0bJ0dBE-6" value="&lt;h1&gt;Generate key pairs&lt;/h1&gt;&lt;p&gt;&lt;span style=&quot;color: rgba(0 , 0 , 0 , 0.9) ; font-family: &amp;#34;menlo&amp;#34; , &amp;#34;consolas&amp;#34; , &amp;#34;courier new&amp;#34; , monospace ; background-color: rgba(0 , 0 , 0 , 0.06)&quot;&gt;crx_tool /mode=createkey /key=&amp;lt;keyname&amp;gt;.der&lt;/span&gt;&lt;br&gt;&lt;/p&gt;" style="text;html=1;strokeColor=default;fillColor=none;spacing=5;spacingTop=-20;whiteSpace=wrap;overflow=hidden;rounded=1;shadow=0;sketch=0;glass=0;" parent="sZe8FNBouu0Gg12doHUx-1" vertex="1">
          <mxGeometry x="293.38" y="158" width="235" height="90" as="geometry" />
        </mxCell>
        <mxCell id="1rEJnnnodCpan0bJ0dBE-10" style="edgeStyle=orthogonalEdgeStyle;rounded=0;orthogonalLoop=1;jettySize=auto;html=1;exitX=0.5;exitY=1;exitDx=0;exitDy=0;exitPerimeter=0;entryX=0.5;entryY=0;entryDx=0;entryDy=0;" parent="sZe8FNBouu0Gg12doHUx-1" source="1rEJnnnodCpan0bJ0dBE-7" target="1rEJnnnodCpan0bJ0dBE-11" edge="1">
          <mxGeometry relative="1" as="geometry" />
        </mxCell>
        <mxCell id="1rEJnnnodCpan0bJ0dBE-13" style="edgeStyle=orthogonalEdgeStyle;rounded=0;orthogonalLoop=1;jettySize=auto;html=1;exitX=1;exitY=0.5;exitDx=0;exitDy=0;exitPerimeter=0;entryX=0;entryY=0.5;entryDx=0;entryDy=0;" parent="sZe8FNBouu0Gg12doHUx-1" source="1rEJnnnodCpan0bJ0dBE-7" target="1rEJnnnodCpan0bJ0dBE-16" edge="1">
          <mxGeometry relative="1" as="geometry">
            <mxPoint x="818" y="333" as="targetPoint" />
          </mxGeometry>
        </mxCell>
        <mxCell id="1rEJnnnodCpan0bJ0dBE-7" value="&lt;keyname&gt;.der" style="verticalLabelPosition=middle;verticalAlign=middle;align=right;strokeColor=none;fillColor=#00BEF2;shape=mxgraph.azure.cloud_services_configuration_file;pointerEvents=1;rounded=1;shadow=0;glass=0;sketch=0;labelPosition=left;" parent="sZe8FNBouu0Gg12doHUx-1" vertex="1">
          <mxGeometry x="387.13" y="308" width="47.5" height="50" as="geometry" />
        </mxCell>
        <mxCell id="SV2UK7K64rMROo8Wy5j_-21" style="edgeStyle=none;rounded=0;orthogonalLoop=1;jettySize=auto;html=1;exitX=1;exitY=0.5;exitDx=0;exitDy=0;exitPerimeter=0;fontFamily=Helvetica;fontSize=18;fontColor=#000000;" parent="sZe8FNBouu0Gg12doHUx-1" source="1rEJnnnodCpan0bJ0dBE-9" target="SV2UK7K64rMROo8Wy5j_-20" edge="1">
          <mxGeometry relative="1" as="geometry" />
        </mxCell>
        <mxCell id="1rEJnnnodCpan0bJ0dBE-9" value="&lt;keyname&gt;.pem" style="verticalLabelPosition=bottom;verticalAlign=top;align=center;strokeColor=none;fillColor=#FF8000;shape=mxgraph.azure.cloud_services_configuration_file;pointerEvents=1;rounded=1;shadow=0;glass=0;sketch=0;fontColor=#FF8000;" parent="sZe8FNBouu0Gg12doHUx-1" vertex="1">
          <mxGeometry x="387.13" y="628" width="47.5" height="50" as="geometry" />
        </mxCell>
        <mxCell id="1rEJnnnodCpan0bJ0dBE-12" style="edgeStyle=orthogonalEdgeStyle;rounded=0;orthogonalLoop=1;jettySize=auto;html=1;exitX=0.5;exitY=1;exitDx=0;exitDy=0;entryX=0.5;entryY=0;entryDx=0;entryDy=0;entryPerimeter=0;" parent="sZe8FNBouu0Gg12doHUx-1" source="1rEJnnnodCpan0bJ0dBE-11" target="1rEJnnnodCpan0bJ0dBE-9" edge="1">
          <mxGeometry relative="1" as="geometry" />
        </mxCell>
        <mxCell id="1rEJnnnodCpan0bJ0dBE-11" value="&lt;h1&gt;Convert to PEM format&lt;/h1&gt;&lt;pre class=&quot;hljs&quot; style=&quot;box-sizing: border-box ; overflow-x: auto ; padding: 15px ; color: rgba(0 , 0 , 0 , 0.9) ; margin-top: 0px ; margin-bottom: 16px ; font-size: 0.75rem ; overflow-wrap: normal ; border-radius: 2px&quot;&gt;&lt;code class=&quot;c++&quot; style=&quot;box-sizing: border-box ; font-family: &amp;#34;menlo&amp;#34; , &amp;#34;consolas&amp;#34; , &amp;#34;courier new&amp;#34; , monospace ; font-size: inherit ; background-color: transparent ; padding: 0px ; border-radius: 2px&quot;&gt;crx_tool /mode=createkey /key=my_new_component.der&lt;br&gt;openssl.exe pkey -inform DER -outform PEM -in my_new_component.der -out my_new_component.pem&lt;br&gt;&lt;span class=&quot;hljs-comment&quot; style=&quot;box-sizing: border-box ; color: rgba(, 1)&quot;&gt;// Install Azure CLI&lt;/span&gt;&lt;br&gt;az login&lt;br&gt;az keyvault secret &lt;span class=&quot;hljs-built_in&quot; style=&quot;box-sizing: border-box&quot;&gt;set&lt;/span&gt; --vault-name ComponentSigningKeys -n my_new_component-key-secret -f my_new_component.pem&lt;/code&gt;&lt;/pre&gt;" style="text;html=1;strokeColor=default;fillColor=none;spacing=5;spacingTop=-20;whiteSpace=wrap;overflow=hidden;rounded=1;shadow=0;sketch=0;glass=0;" parent="sZe8FNBouu0Gg12doHUx-1" vertex="1">
          <mxGeometry x="24" y="408" width="773.75" height="150" as="geometry" />
        </mxCell>
        <mxCell id="SV2UK7K64rMROo8Wy5j_-17" style="edgeStyle=orthogonalEdgeStyle;rounded=0;orthogonalLoop=1;jettySize=auto;html=1;exitX=0.75;exitY=1;exitDx=0;exitDy=0;entryX=0.5;entryY=0;entryDx=0;entryDy=0;fontFamily=Helvetica;fontSize=18;fontColor=#000000;" parent="sZe8FNBouu0Gg12doHUx-1" source="1rEJnnnodCpan0bJ0dBE-16" target="1rEJnnnodCpan0bJ0dBE-17" edge="1">
          <mxGeometry relative="1" as="geometry" />
        </mxCell>
        <mxCell id="1rEJnnnodCpan0bJ0dBE-16" value="&lt;h1&gt;Retrieve CrxId from dummy zip file&lt;/h1&gt;&lt;div&gt;crx_tool /mode=sign /key=&amp;lt;keyname&amp;gt;.der /zip=dummy.zip /crx=output.crx&lt;br&gt;&lt;/div&gt;&lt;div&gt;crx_tool /mode=verify /crx=output.crx&lt;br&gt;&lt;/div&gt;" style="text;html=1;strokeColor=default;fillColor=none;spacing=5;spacingTop=-20;whiteSpace=wrap;overflow=hidden;rounded=1;shadow=0;sketch=0;glass=0;" parent="sZe8FNBouu0Gg12doHUx-1" vertex="1">
          <mxGeometry x="515" y="285" width="442" height="96" as="geometry" />
        </mxCell>
        <mxCell id="SV2UK7K64rMROo8Wy5j_-19" style="edgeStyle=none;rounded=0;orthogonalLoop=1;jettySize=auto;html=1;entryX=0.5;entryY=0;entryDx=0;entryDy=0;fontFamily=Helvetica;fontSize=18;fontColor=#000000;" parent="sZe8FNBouu0Gg12doHUx-1" source="1rEJnnnodCpan0bJ0dBE-17" target="SV2UK7K64rMROo8Wy5j_-6" edge="1">
          <mxGeometry relative="1" as="geometry" />
        </mxCell>
        <mxCell id="1rEJnnnodCpan0bJ0dBE-17" value="Crx APP ID" style="shape=document;whiteSpace=wrap;html=1;boundedLbl=1;rounded=1;shadow=0;glass=0;sketch=0;fontFamily=Helvetica;strokeColor=#FF8000;fontSize=18;fontStyle=1;fontColor=#FF8000;labelBorderColor=none;" parent="sZe8FNBouu0Gg12doHUx-1" vertex="1">
          <mxGeometry x="787" y="635" width="120" height="48" as="geometry" />
        </mxCell>
        <mxCell id="SV2UK7K64rMROo8Wy5j_-2" style="edgeStyle=orthogonalEdgeStyle;rounded=0;orthogonalLoop=1;jettySize=auto;html=1;exitX=1;exitY=0.5;exitDx=0;exitDy=0;entryX=0;entryY=0.5;entryDx=0;entryDy=0;entryPerimeter=0;fontFamily=Helvetica;fontSize=18;fontColor=#FF8000;" parent="sZe8FNBouu0Gg12doHUx-1" source="SV2UK7K64rMROo8Wy5j_-0" target="SV2UK7K64rMROo8Wy5j_-1" edge="1">
          <mxGeometry relative="1" as="geometry" />
        </mxCell>
        <mxCell id="SV2UK7K64rMROo8Wy5j_-0" value="Edge Repo&lt;br&gt;edgeinternal.es.components" style="shape=image;html=1;verticalAlign=top;verticalLabelPosition=bottom;labelBackgroundColor=#ffffff;imageAspect=0;aspect=fixed;image=https://cdn0.iconfinder.com/data/icons/octicons/1024/repo-forked-128.png" parent="sZe8FNBouu0Gg12doHUx-1" vertex="1">
          <mxGeometry x="163" y="858" width="60" height="60" as="geometry" />
        </mxCell>
        <mxCell id="SV2UK7K64rMROo8Wy5j_-4" style="edgeStyle=orthogonalEdgeStyle;rounded=0;orthogonalLoop=1;jettySize=auto;html=1;exitX=1;exitY=0.5;exitDx=0;exitDy=0;exitPerimeter=0;fontFamily=Helvetica;fontSize=18;fontColor=#FF8000;entryX=0;entryY=0.5;entryDx=0;entryDy=0;" parent="sZe8FNBouu0Gg12doHUx-1" source="SV2UK7K64rMROo8Wy5j_-1" target="SV2UK7K64rMROo8Wy5j_-6" edge="1">
          <mxGeometry relative="1" as="geometry">
            <mxPoint x="560" y="888" as="targetPoint" />
          </mxGeometry>
        </mxCell>
        <mxCell id="SV2UK7K64rMROo8Wy5j_-1" value="CRX Build.yaml" style="verticalLabelPosition=bottom;verticalAlign=top;align=center;strokeColor=none;fillColor=#00BEF2;shape=mxgraph.azure.cloud_services_configuration_file;pointerEvents=1;rounded=1;shadow=0;glass=0;sketch=0;labelPosition=center;" parent="sZe8FNBouu0Gg12doHUx-1" vertex="1">
          <mxGeometry x="387.13" y="863" width="47.5" height="50" as="geometry" />
        </mxCell>
        <mxCell id="SV2UK7K64rMROo8Wy5j_-6" value="Tree Container" style="swimlane;startSize=20;horizontal=1;containerType=tree;rounded=1;shadow=0;glass=0;labelBorderColor=none;sketch=0;fontFamily=Helvetica;fontSize=18;fontColor=#FF8000;strokeColor=#FF8000;fillColor=#FF8000;" parent="sZe8FNBouu0Gg12doHUx-1" vertex="1">
          <mxGeometry x="589" y="752.25" width="245" height="271.5" as="geometry" />
        </mxCell>
        <mxCell id="SV2UK7K64rMROo8Wy5j_-7" value="" style="edgeStyle=elbowEdgeStyle;elbow=vertical;startArrow=none;endArrow=none;rounded=0;fontFamily=Helvetica;fontSize=18;fontColor=#FF8000;" parent="SV2UK7K64rMROo8Wy5j_-6" source="SV2UK7K64rMROo8Wy5j_-8" target="SV2UK7K64rMROo8Wy5j_-9" edge="1">
          <mxGeometry relative="1" as="geometry" />
        </mxCell>
        <mxCell id="SV2UK7K64rMROo8Wy5j_-8" value="&lt;font color=&quot;#330000&quot;&gt;Download&lt;/font&gt;" style="whiteSpace=wrap;html=1;treeFolding=1;treeMoving=1;newEdgeStyle={&quot;edgeStyle&quot;:&quot;elbowEdgeStyle&quot;,&quot;startArrow&quot;:&quot;none&quot;,&quot;endArrow&quot;:&quot;none&quot;};rounded=1;shadow=0;glass=0;labelBorderColor=none;sketch=0;fontFamily=Helvetica;fontSize=18;fontColor=#FF8000;strokeColor=#FF8000;fillColor=#FF8000;" parent="SV2UK7K64rMROo8Wy5j_-6" vertex="1">
          <mxGeometry x="62.5" y="42.5" width="120" height="40" as="geometry" />
        </mxCell>
        <mxCell id="SV2UK7K64rMROo8Wy5j_-9" value="&lt;font color=&quot;#000000&quot;&gt;Sign&lt;/font&gt;" style="whiteSpace=wrap;html=1;treeFolding=1;treeMoving=1;newEdgeStyle={&quot;edgeStyle&quot;:&quot;elbowEdgeStyle&quot;,&quot;startArrow&quot;:&quot;none&quot;,&quot;endArrow&quot;:&quot;none&quot;};rounded=1;shadow=0;glass=0;labelBorderColor=none;sketch=0;fontFamily=Helvetica;fontSize=18;fontColor=#FF8000;strokeColor=#FF8000;fillColor=#FF8000;" parent="SV2UK7K64rMROo8Wy5j_-6" vertex="1">
          <mxGeometry x="62.5" y="122.5" width="120" height="40" as="geometry" />
        </mxCell>
        <mxCell id="SV2UK7K64rMROo8Wy5j_-14" value="" style="edgeStyle=elbowEdgeStyle;elbow=vertical;startArrow=none;endArrow=none;rounded=0;fontFamily=Helvetica;fontSize=18;fontColor=#FF8000;" parent="SV2UK7K64rMROo8Wy5j_-6" source="SV2UK7K64rMROo8Wy5j_-9" target="SV2UK7K64rMROo8Wy5j_-15" edge="1">
          <mxGeometry relative="1" as="geometry">
            <mxPoint x="740.5" y="813" as="sourcePoint" />
          </mxGeometry>
        </mxCell>
        <mxCell id="SV2UK7K64rMROo8Wy5j_-15" value="&lt;font color=&quot;#000000&quot;&gt;Publish artifact&lt;/font&gt;" style="whiteSpace=wrap;html=1;treeFolding=1;treeMoving=1;newEdgeStyle={&quot;edgeStyle&quot;:&quot;elbowEdgeStyle&quot;,&quot;startArrow&quot;:&quot;none&quot;,&quot;endArrow&quot;:&quot;none&quot;};rounded=1;shadow=0;glass=0;labelBorderColor=none;sketch=0;fontFamily=Helvetica;fontSize=18;fontColor=#FF8000;strokeColor=#FF8000;fillColor=#FF8000;" parent="SV2UK7K64rMROo8Wy5j_-6" vertex="1">
          <mxGeometry x="62.5" y="202.5" width="120" height="40" as="geometry" />
        </mxCell>
        <mxCell id="SV2UK7K64rMROo8Wy5j_-22" style="edgeStyle=none;rounded=0;orthogonalLoop=1;jettySize=auto;html=1;exitX=0.5;exitY=1;exitDx=0;exitDy=0;entryX=0.5;entryY=0;entryDx=0;entryDy=0;fontFamily=Helvetica;fontSize=18;fontColor=#000000;" parent="sZe8FNBouu0Gg12doHUx-1" source="SV2UK7K64rMROo8Wy5j_-20" target="SV2UK7K64rMROo8Wy5j_-6" edge="1">
          <mxGeometry relative="1" as="geometry" />
        </mxCell>
        <mxCell id="SV2UK7K64rMROo8Wy5j_-20" value="Key vault" style="shape=image;html=1;verticalAlign=bottom;verticalLabelPosition=top;labelBackgroundColor=#ffffff;imageAspect=0;aspect=fixed;image=https://cdn4.iconfinder.com/data/icons/geosm-e-commerce/48/key-3-128.png;rounded=1;shadow=0;glass=0;labelBorderColor=none;sketch=0;fontFamily=Helvetica;fontSize=18;fontColor=#000000;strokeColor=#FF8000;fillColor=#FF8000;labelPosition=center;align=center;" parent="sZe8FNBouu0Gg12doHUx-1" vertex="1">
          <mxGeometry x="575" y="617" width="72" height="72" as="geometry" />
        </mxCell>
      </root>
    </mxGraphModel>
  </diagram>
  <diagram id="qq5ibbnCGhS1M1pRpbVk" name="Code migration">
    <mxGraphModel dx="2352" dy="835" grid="0" gridSize="10" guides="1" tooltips="1" connect="1" arrows="1" fold="1" page="1" pageScale="1" pageWidth="850" pageHeight="1100" math="0" shadow="0">
      <root>
        <mxCell id="QDc9LdpgYNUI8fUYREYU-0" />
        <mxCell id="QDc9LdpgYNUI8fUYREYU-1" parent="QDc9LdpgYNUI8fUYREYU-0" />
        <mxCell id="heKhTewwlS7iGbR-PwLU-10" value="" style="rounded=0;whiteSpace=wrap;html=1;dashed=1;strokeWidth=2;" vertex="1" parent="QDc9LdpgYNUI8fUYREYU-1">
          <mxGeometry x="-243" y="318" width="500" height="126" as="geometry" />
        </mxCell>
        <mxCell id="MSlTlb2QynzkavZNL3xy-25" style="edgeStyle=orthogonalEdgeStyle;rounded=0;orthogonalLoop=1;jettySize=auto;html=1;exitX=0.5;exitY=1;exitDx=0;exitDy=0;entryX=0.5;entryY=0;entryDx=0;entryDy=0;startSize=30;" parent="QDc9LdpgYNUI8fUYREYU-1" source="MSlTlb2QynzkavZNL3xy-0" target="MSlTlb2QynzkavZNL3xy-3" edge="1">
          <mxGeometry relative="1" as="geometry" />
        </mxCell>
        <mxCell id="MSlTlb2QynzkavZNL3xy-0" value="XPay Repo&lt;br&gt;Component code" style="shape=image;html=1;verticalAlign=top;verticalLabelPosition=bottom;labelBackgroundColor=#ffffff;imageAspect=0;aspect=fixed;image=https://cdn0.iconfinder.com/data/icons/octicons/1024/repo-forked-128.png" parent="QDc9LdpgYNUI8fUYREYU-1" vertex="1">
          <mxGeometry x="290" y="50" width="60" height="60" as="geometry" />
        </mxCell>
        <mxCell id="MSlTlb2QynzkavZNL3xy-6" style="edgeStyle=orthogonalEdgeStyle;rounded=0;orthogonalLoop=1;jettySize=auto;html=1;exitX=0.5;exitY=1;exitDx=0;exitDy=0;entryX=0.5;entryY=0;entryDx=0;entryDy=0;" parent="QDc9LdpgYNUI8fUYREYU-1" source="MSlTlb2QynzkavZNL3xy-3" target="MSlTlb2QynzkavZNL3xy-4" edge="1">
          <mxGeometry relative="1" as="geometry" />
        </mxCell>
        <mxCell id="MSlTlb2QynzkavZNL3xy-3" value="src/wallet/&lt;br&gt;&lt;b&gt;monorepo&lt;/b&gt;" style="rounded=0;whiteSpace=wrap;html=1;" parent="QDc9LdpgYNUI8fUYREYU-1" vertex="1">
          <mxGeometry x="260" y="180" width="120" height="40" as="geometry" />
        </mxCell>
        <mxCell id="MSlTlb2QynzkavZNL3xy-8" value="" style="edgeStyle=orthogonalEdgeStyle;rounded=0;orthogonalLoop=1;jettySize=auto;html=1;" parent="QDc9LdpgYNUI8fUYREYU-1" source="MSlTlb2QynzkavZNL3xy-4" target="MSlTlb2QynzkavZNL3xy-7" edge="1">
          <mxGeometry relative="1" as="geometry" />
        </mxCell>
        <mxCell id="MSlTlb2QynzkavZNL3xy-10" value="" style="edgeStyle=orthogonalEdgeStyle;rounded=0;orthogonalLoop=1;jettySize=auto;html=1;" parent="QDc9LdpgYNUI8fUYREYU-1" source="MSlTlb2QynzkavZNL3xy-4" target="MSlTlb2QynzkavZNL3xy-9" edge="1">
          <mxGeometry relative="1" as="geometry" />
        </mxCell>
        <mxCell id="heKhTewwlS7iGbR-PwLU-1" style="edgeStyle=orthogonalEdgeStyle;rounded=0;orthogonalLoop=1;jettySize=auto;html=1;exitX=0;exitY=0.5;exitDx=0;exitDy=0;entryX=0.5;entryY=0;entryDx=0;entryDy=0;" edge="1" parent="QDc9LdpgYNUI8fUYREYU-1" source="MSlTlb2QynzkavZNL3xy-4" target="heKhTewwlS7iGbR-PwLU-0">
          <mxGeometry relative="1" as="geometry" />
        </mxCell>
        <mxCell id="heKhTewwlS7iGbR-PwLU-8" style="edgeStyle=orthogonalEdgeStyle;rounded=0;orthogonalLoop=1;jettySize=auto;html=1;exitX=0;exitY=0.5;exitDx=0;exitDy=0;entryX=0.5;entryY=0;entryDx=0;entryDy=0;" edge="1" parent="QDc9LdpgYNUI8fUYREYU-1" source="MSlTlb2QynzkavZNL3xy-4" target="heKhTewwlS7iGbR-PwLU-3">
          <mxGeometry relative="1" as="geometry" />
        </mxCell>
        <mxCell id="MSlTlb2QynzkavZNL3xy-4" value="packages&lt;br&gt;workspaces" style="rounded=0;whiteSpace=wrap;html=1;" parent="QDc9LdpgYNUI8fUYREYU-1" vertex="1">
          <mxGeometry x="260" y="270" width="120" height="40" as="geometry" />
        </mxCell>
        <mxCell id="MSlTlb2QynzkavZNL3xy-12" value="" style="edgeStyle=orthogonalEdgeStyle;rounded=0;orthogonalLoop=1;jettySize=auto;html=1;entryX=0.75;entryY=0;entryDx=0;entryDy=0;" parent="QDc9LdpgYNUI8fUYREYU-1" source="MSlTlb2QynzkavZNL3xy-7" target="MSlTlb2QynzkavZNL3xy-14" edge="1">
          <mxGeometry relative="1" as="geometry">
            <mxPoint x="190" y="484" as="targetPoint" />
          </mxGeometry>
        </mxCell>
        <mxCell id="MSlTlb2QynzkavZNL3xy-7" value="apis" style="rounded=0;whiteSpace=wrap;html=1;" parent="QDc9LdpgYNUI8fUYREYU-1" vertex="1">
          <mxGeometry x="130" y="354" width="120" height="40" as="geometry" />
        </mxCell>
        <mxCell id="MSlTlb2QynzkavZNL3xy-24" style="edgeStyle=orthogonalEdgeStyle;rounded=0;orthogonalLoop=1;jettySize=auto;html=1;exitX=0.5;exitY=1;exitDx=0;exitDy=0;entryX=0.5;entryY=0;entryDx=0;entryDy=0;startSize=30;" parent="QDc9LdpgYNUI8fUYREYU-1" source="MSlTlb2QynzkavZNL3xy-9" target="MSlTlb2QynzkavZNL3xy-19" edge="1">
          <mxGeometry relative="1" as="geometry" />
        </mxCell>
        <mxCell id="MSlTlb2QynzkavZNL3xy-27" style="edgeStyle=orthogonalEdgeStyle;shape=arrow;rounded=0;orthogonalLoop=1;jettySize=auto;html=1;exitX=0;exitY=0.5;exitDx=0;exitDy=0;dashed=1;" parent="QDc9LdpgYNUI8fUYREYU-1" source="MSlTlb2QynzkavZNL3xy-9" edge="1">
          <mxGeometry relative="1" as="geometry">
            <mxPoint x="266" y="374" as="targetPoint" />
          </mxGeometry>
        </mxCell>
        <mxCell id="MSlTlb2QynzkavZNL3xy-28" value="import" style="edgeLabel;html=1;align=center;verticalAlign=middle;resizable=0;points=[];fontSize=16;" parent="MSlTlb2QynzkavZNL3xy-27" vertex="1" connectable="0">
          <mxGeometry x="0.1467" y="-6" relative="1" as="geometry">
            <mxPoint as="offset" />
          </mxGeometry>
        </mxCell>
        <mxCell id="MSlTlb2QynzkavZNL3xy-9" value="hub" style="rounded=0;whiteSpace=wrap;html=1;" parent="QDc9LdpgYNUI8fUYREYU-1" vertex="1">
          <mxGeometry x="400" y="354" width="120" height="40" as="geometry" />
        </mxCell>
        <mxCell id="MSlTlb2QynzkavZNL3xy-14" value="Staffs copied from edge_common&amp;edge_wallet" style="swimlane;fontStyle=0;childLayout=stackLayout;horizontal=1;startSize=30;horizontalStack=0;resizeParent=1;resizeParentMax=0;resizeLast=0;collapsible=1;marginBottom=0;arcSize=20;" parent="QDc9LdpgYNUI8fUYREYU-1" vertex="1">
          <mxGeometry x="-139.01" y="601" width="330" height="150" as="geometry">
            <mxRectangle x="120" y="520" width="120" height="30" as="alternateBounds" />
          </mxGeometry>
        </mxCell>
        <mxCell id="MSlTlb2QynzkavZNL3xy-15" value="api interfaces" style="text;strokeColor=none;fillColor=none;align=left;verticalAlign=middle;spacingLeft=4;spacingRight=4;overflow=hidden;points=[[0,0.5],[1,0.5]];portConstraint=eastwest;rotatable=0;fontStyle=1" parent="MSlTlb2QynzkavZNL3xy-14" vertex="1">
          <mxGeometry y="30" width="330" height="30" as="geometry" />
        </mxCell>
        <mxCell id="MSlTlb2QynzkavZNL3xy-16" value="components from edge_common" style="text;strokeColor=none;fillColor=none;align=left;verticalAlign=middle;spacingLeft=4;spacingRight=4;overflow=hidden;points=[[0,0.5],[1,0.5]];portConstraint=eastwest;rotatable=0;" parent="MSlTlb2QynzkavZNL3xy-14" vertex="1">
          <mxGeometry y="60" width="330" height="30" as="geometry" />
        </mxCell>
        <mxCell id="heKhTewwlS7iGbR-PwLU-12" value="components from edge_wallet/shared" style="text;strokeColor=none;fillColor=none;align=left;verticalAlign=middle;spacingLeft=4;spacingRight=4;overflow=hidden;points=[[0,0.5],[1,0.5]];portConstraint=eastwest;rotatable=0;" vertex="1" parent="MSlTlb2QynzkavZNL3xy-14">
          <mxGeometry y="90" width="330" height="30" as="geometry" />
        </mxCell>
        <mxCell id="heKhTewwlS7iGbR-PwLU-11" value="helpers" style="text;strokeColor=none;fillColor=none;align=left;verticalAlign=middle;spacingLeft=4;spacingRight=4;overflow=hidden;points=[[0,0.5],[1,0.5]];portConstraint=eastwest;rotatable=0;" vertex="1" parent="MSlTlb2QynzkavZNL3xy-14">
          <mxGeometry y="120" width="330" height="30" as="geometry" />
        </mxCell>
        <mxCell id="MSlTlb2QynzkavZNL3xy-30" style="edgeStyle=orthogonalEdgeStyle;rounded=0;orthogonalLoop=1;jettySize=auto;html=1;entryX=0.5;entryY=0.16;entryDx=0;entryDy=0;entryPerimeter=0;fontSize=16;" parent="QDc9LdpgYNUI8fUYREYU-1" source="MSlTlb2QynzkavZNL3xy-19" target="MSlTlb2QynzkavZNL3xy-29" edge="1">
          <mxGeometry relative="1" as="geometry" />
        </mxCell>
        <mxCell id="MSlTlb2QynzkavZNL3xy-19" value="Wallet Hub code" style="swimlane;fontStyle=0;childLayout=stackLayout;horizontal=1;startSize=30;horizontalStack=0;resizeParent=1;resizeParentMax=0;resizeLast=0;collapsible=1;marginBottom=0;arcSize=20;" parent="QDc9LdpgYNUI8fUYREYU-1" vertex="1">
          <mxGeometry x="355" y="443" width="210" height="150" as="geometry">
            <mxRectangle x="120" y="520" width="120" height="30" as="alternateBounds" />
          </mxGeometry>
        </mxCell>
        <mxCell id="MSlTlb2QynzkavZNL3xy-20" value="mock data" style="text;strokeColor=none;fillColor=none;align=left;verticalAlign=middle;spacingLeft=4;spacingRight=4;overflow=hidden;points=[[0,0.5],[1,0.5]];portConstraint=eastwest;rotatable=0;" parent="MSlTlb2QynzkavZNL3xy-19" vertex="1">
          <mxGeometry y="30" width="210" height="30" as="geometry" />
        </mxCell>
        <mxCell id="MSlTlb2QynzkavZNL3xy-21" value="feature code" style="text;strokeColor=none;fillColor=none;align=left;verticalAlign=middle;spacingLeft=4;spacingRight=4;overflow=hidden;points=[[0,0.5],[1,0.5]];portConstraint=eastwest;rotatable=0;" parent="MSlTlb2QynzkavZNL3xy-19" vertex="1">
          <mxGeometry y="60" width="210" height="30" as="geometry" />
        </mxCell>
        <mxCell id="MSlTlb2QynzkavZNL3xy-22" value="configs" style="text;strokeColor=none;fillColor=none;align=left;verticalAlign=middle;spacingLeft=4;spacingRight=4;overflow=hidden;points=[[0,0.5],[1,0.5]];portConstraint=eastwest;rotatable=0;" parent="MSlTlb2QynzkavZNL3xy-19" vertex="1">
          <mxGeometry y="90" width="210" height="30" as="geometry" />
        </mxCell>
        <mxCell id="heKhTewwlS7iGbR-PwLU-4" value="html template for dev-server" style="text;strokeColor=none;fillColor=none;align=left;verticalAlign=middle;spacingLeft=4;spacingRight=4;overflow=hidden;points=[[0,0.5],[1,0.5]];portConstraint=eastwest;rotatable=0;" vertex="1" parent="MSlTlb2QynzkavZNL3xy-19">
          <mxGeometry y="120" width="210" height="30" as="geometry" />
        </mxCell>
        <mxCell id="heKhTewwlS7iGbR-PwLU-7" style="edgeStyle=orthogonalEdgeStyle;rounded=0;orthogonalLoop=1;jettySize=auto;html=1;shape=flexArrow;" edge="1" parent="QDc9LdpgYNUI8fUYREYU-1" source="MSlTlb2QynzkavZNL3xy-29">
          <mxGeometry relative="1" as="geometry">
            <mxPoint x="460" y="723" as="targetPoint" />
          </mxGeometry>
        </mxCell>
        <mxCell id="MSlTlb2QynzkavZNL3xy-29" value="&lt;font color=&quot;#000000&quot;&gt;Webpack&lt;/font&gt;" style="sketch=0;html=1;fillColor=#5184F3;strokeColor=none;verticalAlign=middle;labelPosition=right;verticalLabelPosition=middle;align=left;spacingTop=-6;fontSize=11;fontStyle=1;fontColor=#999999;shape=mxgraph.gcp2.hexIcon;prIcon=container_builder;startSize=30;" parent="QDc9LdpgYNUI8fUYREYU-1" vertex="1">
          <mxGeometry x="427" y="626" width="66" height="58.5" as="geometry" />
        </mxCell>
        <mxCell id="gOgx4db88yZDLvZz5aSS-6" value="" style="shape=image;verticalLabelPosition=bottom;labelBackgroundColor=#ffffff;verticalAlign=top;aspect=fixed;imageAspect=0;image=data:image/png,iVBORw0KGgoAAAANSUhEUgAAASQAAAFZCAYAAAAxRVLzAAAgAElEQVR4nOzdf1BU973/8ScLwsqKG8S4JoAXMUIEgyQYr2HwqjdRAyTBUlK4QYcyJiFKazBTDTNO4qUz9xttMgTspMkdaNRinHBt8ZqB6KSK1Us1oKmy/gDHn+GHikpwhQ27iMv3D4etRNg98mt34f34q93dcz7vcxbf2c/58TpuU6ZM6UIIIZyASsmHSkpKhroOIYRQ1pCEEGI4jPiGtHr1aoqKipg/f76jSxFC2DHiG1JLSwutra20tbU5uhQhhB0eji5gqBUVFVFUVOToMoQQCjhtQ0pKSiIuLo7x48cDcOPGDQoLC/nuu+8AyM7OxsvLC09PT6ZPn47FYqGyspL8/HwsFgvx8fEsX74cT09PAHbv3s22bdus69fpdKxcuZKwsDA8PDwwm82cOHGCrVu30tTUNPwbLIRw3inbsWPH+Oyzz1i2bBlZWVkYjUZSU1MZN26c9TNhYWHU1dXxxhtvcODAAaKionj++ecBKCsrIyUlhZycHIxG4wPrT05OJiAggNzcXJKSkvjkk08wm82YTKZh20YhRE9O25AuX75MVVUVJpOJhoYGTp48ibe3N76+vtbPNDQ0UFBQgMFgYP/+/ZhMJsLCwhSt38vLC4DW1lYsFgsVFRXk5eVhMBiGZHuEEPYpmrK5ubkN67VIiYmJBAUFkZ6eTnBwMGPHjkWlUnH9+vUen7NYLFgsFgCuXbuG0Whk7Nixisb4+uuvCQoKYsOGDdy8eZPvvvuO0tJSma4J4UCKGlJXVxeJiYlDXYuVTqfjnXfewcvLiy1btnDy5Eni4uJ47rnnBm2M06dPk5mZSUREBAsXLmTBggVERUXxwQcfUF9fP2jjCCGUc8op2+TJk/H19eXw4cOUl5dz48YNRctoNBpu3br1UGPp9Xry8/MpLi7Gx8eHiIiI/pYthBggpzzL1traislkIiAgAK1WS3h4ONHR0bi7u6PRaKyf0+l0xMbGcujQIeLi4vD09ESv19tdv1qt5q233qK1tZU///nPANZG1NLSMjQbJYSwy03JzbUlJSXDOmUDiI2NJTk5GR8fHwwGA/v27SM6Oppjx46xdetWsrOzmTp1KgATJ07kxx9/pLS0lOLiYgDS0tJISEh4YL3dp/8TExN58cUXmTBhAgA//PADe/fulfv2hHAgp21I9mRnZ+Pn58fatWsdXYoQYpA45TEkIcTo5LINqaurizt37ji6DCHEIHLKg9pKbNq0ydElCCEGmUv8QpIDzUKMDi7RkITjqdVqtFqto8sQI5w0JKFIaGgoubm5xMfHO7oUMYJJQxrBFi9ezB/+8Ae5+ly4DGlICmm1WpYsWcLrr7/u6FIUGzNmDF5eXri5uTm6FCEUcdmzbEMtODiYN998k+DgYDw8/rmbrl27RlBQEHV1dSxbtoxFixah0Wi4ffs2ZWVl7Ny5E7h34aa7uzt37tzhmWeeQaVScfz4cX7/+9/T1taGSqWyu/ycOXO4cOEC5eXlJCcnM378eGpqali/fr3NALvAwEDWr1/PpEmTANiwYQMA58+fZ926dQB2x9dqtaxZs4awsDAsFgu1tbXS2MSQk4bUC5VKxYoVKxg3bhzvv/8+V69eJTMzk87OTj766CMsFgs///nPmT9/Pjt27ODQoUMkJiYSGxtLY2Mjhw8fBmDGjBmcOHGCjIwMEhISWLx4MXPmzKG8vJyf/exnNpffuHEjaWlpLFy4kJdffpni4mIiIyPp6rp3Yf2xY8eoq6tDr9czceJEsrKySE1N5ezZs9TX1/PWW28RHx9PYmIimzdvprq6usc22hs/PT2dqVOnUlhYSGVlJZmZmXh7ew/7dyFGF5my9cLf3x8/Pz+OHj1KbW0tBoOB6upqQkNDeeqpp1CpVMydO5dz586xZ88ejEYju3btorW1tcfxmqamJnJzc63Lm81ma7aTkuUBfHx8qK6uZs+ePbS3t1sTLZUE2PXF3viBgYE8+eST1NTU8M0332AwGCgrK+s1eVOIweQSv5CGOyAuKSmJ5uZmZs6ciU6nw2AwEBkZiUqloqOjA39/f3x8fJg2bdoDdV29etX6v+8PkLuf0uXhXvLBkSNHAMjLy7O+riTAri/2xp8wYQIajeaBWoQYai7RkIY7IA6goKCA7OxsPv30UwCMRiOlpaXU1NQQGBgIwMGDB8nPz+/3GEqWN5lMD0SiDFaAXV/jz5o166HWI8RgcYmG5AgxMTF0dHSwcuXKB2JtGxsbaW1tRafToVKpev0VZMtAl+8OsNu3bx/l5eU2P+vm5tbjoLyS8Y1GI2azGT8/P+trHh4eclBbDDk5htSHcePG4eHhYX2M0v0sFgv/+Mc/CA4O5o033kCtVhMdHU12drb115MtA13+pwF20dHRREdH4+Hh0SPArr6+nq6uLmbPno1arSYiIgKdTmd3/PPnz/P9998TERFBTEwMQUFBpKSkyEFtMeTkF1Ifjhw5QmRkJHl5ebi5uWGxWHqcWi8uLmbMmDEsWrSIJUuWYDabOXv2rPUsmD32lu8+7Q+Qn59PVVUVGzduBODixYuUlJSQnJzM559/3iPAbu7cudTW1gL34nkPHDhAbGwsS5YswWg08tVXX7Fz506743/xxRdkZmaSlZWF2WymsrJS0QFzIQbCJQLahnt8tVpNUFAQly9ftp7VCggIICsri66uLt59992HnmYJIeyTKVsvQkJCWLt2LampqajVagAmTJiAu7s7HR0d0oyEGCIyZetF91Rn8eLFxMXF4ebmRkdHBxcuXKCgoMDR5QkxYklD6sP27dvZvn27o8sQYlSRKZsQwmlIQxIuSaVS8fjjjzu6DDHIZMrmYBEREaSnp1uvP2psbOTDDz+koaEBgNWrV/Pss89SWFjIwYMHAYiPj2f58uXWa6S6nzU3FHob/2HY277+WrdunTwGawSShuRAKpWKlJQUOjs7yczMxGQyER4e3uMfa0tLC62trbS1tVlfKysro6yszBozMpR6G18pJdsnxP2kITmQv78/EyZM4MiRI9bbU7qjS7oVFRVRVFTkiPIGPL6S7RPiftKQ+pCdnY2Xlxeenp5Mnz4di8VCZWUl+fn5WCwWuwFqarWaVatW8eyzz+Lp6YnBYKCkpITS0lJF4w90WmYvgG2g49sLoLNnoPsHwNPTk5ycHGbMmDFo38/XX3/Nhx9+SHNzM//v//2/HuNNmTKF7Oxs/u///o/y8nJWrlxJWFgYHh4emM1mTpw4wdatW2lqahpwAJ89Q/n3qVKpePfddwkKCmLTpk1cvHiRV155haSkJHbu3Mn333/PmjVrOHjwIFu3bgXu/b1t2rSJtrY2cnJyFH+HPyUHtW0ICwujrq6ON954gwMHDhAVFcXzzz8PwMaNG9m9ezePPvqoNUDt6NGjtLa2ApCamsqsWbPYtm0bqampnDt3jqSkJGbPng3Ahx9+SH5+PpMmTSIhIYGSkhL++7//mylTpgD3pmUpKSnk5OT0K4fo/gC25cuXs3//fmJjY4mOjla0vJLxuxtBRkYGpaWlhIeHW293sbd99vaPEo899hhXrlwhPT2d8vJy5syZwyuvvAL0//t55plnuHHjhvU2mbfffpsvv/yS+Ph4fH198fT0pKmpieTkZAICAsjNzSUpKYlPPvkEs9lsvbLf3v63V58SQ/X3abFY2LVrFyqVildeeQWdTscLL7zAmTNnKCsrQ6/Xc+XKFUJCQlCp7rWQmTNnMmHCBE6dOqW4/t5IQ7KhoaGBgoICDAYD+/fvx2QyERYW1uMzvQWoPfroozz99NOcPXuWvXv3YjKZ2LlzJ52dndZ/cGvXruXtt9/m+vXr7N69m8TERDIyMqirqxtw3Q8TADcQfQXQge3tU7J/lKivr6egoACj0ciePXswGAxMnz69x2f68/1cvXoVHx8fAgMDefzxx+nq6mLy5MkEBARw9+5drl69ipeXF3DvRmeLxUJFRQV5eXkYDIZBCeBTYij/PmtraykvL2fWrFm8+eabeHp68j//8z/WuxROnTrFpEmTCA0NBSA8PJy7d+8+kEz6sFxiyjbcAW3d983dH7B27do1jEaj9R9ct94C1GbMmIFGo6GxsdH6ue7lH3nkkSGvX0kA3P0373br6OigqKiIsrIyReP0FUBnz8SJE+3uHyX13T9+fX09ra2t1hzxbv35fi5fvoyHhwdTpkzB09OTS5cuodPpMJvN3L17F4PBwNdff01QUBAbNmzg5s2bfPfdd5SWltLU1DQoAXwPu/1D8fdZXFzMU089RXh4OMXFxVy8eNH63unTp3nhhReIjIykpqaGkJAQGhsbOX/+PAPhEg3JEQFtSvUWoOYsbAXAdScHOKvBqq8/38+VK1ewWCwEBQXh6elJbW0toaGhGAwG2trauHLlCleuXCEzM5OIiAgWLlzIggULiIqK4oMPPrCup78BfODY7e8WFBTEI488QldXF08++WSP7KxTp07R1NRESEgITzzxBI899hh//etfB1yvTNkUmjx5MhqNhlu3btn97M2bNzEajfj7+/dr+YH6aQCbsxmK/TNlyhTGjx+vKMbX3vg3b96kvb2dgIAA7ty5Q11dHZ6enjz22GPcuHGjx7r0ej35+fkUFxfj4+NDRESEQ/b/YP99qlQqkpOTMZvN/PnPf2bGjBk9HhJqsVg4c+YMjz/+OHPnzgUY8HQNpCHZpNPpiI2NRaPREBcXh6enJ3q93u5yN27c4OTJk4SGhrJ48WLUajWvvvoq7u7uHD16dNDqa2lpwWw2M3XqVNRqNVOmTEGtVg84AG6oDdb+uf/7Wbp0Kd7e3hw/fnzA41+5cgWz2Yy/vz8tLS1cvnwZd3d3Hn/8ca5evYparSYrK4sVK1ag1WrRarXWY0MtLS3Dtv+H8u/zpZdeIjQ0lLKyMnbt2sWFCxeIjY0lODjYuh69Xo+bmxtz5szh6tWrA56ugYtM2Rylvb2dpUuX8vrrr/Pjjz9SWlpqvY7GVoAawLZt29BoNKSnp5ORkUFzczNbt27lu+++UzR2WloaCQkJ1v+fkJBAQkJCj9PvbW1t7N27l+TkZHbs2MHt27cpLCykoqJiwAFySsYfiIHuH7j3S7D7+zGZTOzZs4d9+/YBA/9+bty4wXPPPceZM2e4efMmd+/exdvbm5s3b2Iymairq+PFF18kNjYWgB9++IFdu3ZZ/z4GEsCn1FD9fQYHBxMXF8eZM2es+/Mvf/kLa9as4Re/+AW/+93vsFgsnDp1ips3b/LEE0/06yr+3khAWx+ys7Pl1gThtJzl73PZsmXMmzfPer3SQMmUTQjRL/PmzWPBggWcOHFiUJoRyJStT11dXdy5c8fRZQjRK0f/ff76179m3rx5VFVVsWXLlkFbr0zZhBAPTavV9rgyfbDILyQhxEMzGAxDsl45huSiJKBMjETSkFzUunXrWLNmjaPLEGJQSUMSQjgNaUhCCKchB7X7oNPp+gzg0ul0dgOqlASYzZ8/n9deew0/Pz8sFguNjY1s2bJF0eX/IAFlIzGgbLSTX0h9sBXApTSgylaAWVRUFL/85S9pbGwkMzOT7OxsLl26hLe3t+IaJaBs5AWUjXbSkPpgK4ALlAVU2Qowi4mJobOzk+3bt9PU1MTFixfZvHkz3377reIaJaBs5AWUjXYuMWU7ffr0sAe02Qrg6q7JXkCVrQCzgIAAbt261ecl9xJQNjoDykY7l2hI77333rCPefr06T4DuOrr64csoKqbBJSNzoCy0U6mbHb0FsAFAw+oam5utk6LBoMElI2MgLLRThpSL+wFcHUbSEBVRUUFGo2G5cuXo9VqCQ4OZtWqVURFRSlehwSUjbyAstHOJaZsw01JABcwoICqiooKPD09SUlJ4fPPP+fu3btcunSJqqoqxeuQgLKRF1A22rnE3f7ObLADqoQyIzWgbLSTKdsADEVAlXAd8v0PPpmy9dNQBVQJZUZqQNloJ1O2fhqqgCrhGuT7HxryC6mfhiqgSrgG+f6HhhxDEkI4DWlIQginIQ3JiS1evJg//OEPD9yQKsRIJQ3JiY0ZMwYvLy/c3NwcXYoQw8KpD2rbCjCzFbCVlpZGZGQkZrOZadOmcfz4cXx9fQkKCqKyspKPPvrIbsCXrfUDdgPYlASU9bW8r68v69evt965v2HDBgDOnz/PunXrANsBct2JBEK4Gqf9hWQvwMxWwBbc+wd7/Phx9u7dy1NPPcWJEyf4+uuvmTZtmvV+KlsBX/bWD7YD2OwFlNlavr6+nrfeeos//vGPtLS0kJOTQ2JiorUZge0AOSFcldM2JFsBZkoCtm7fvs3hw4fp7OzEYDBw6NAhrl+/3uNiur4CvpSsH/oOYFMaUGYrwM0eewFyQrgiRVM2Nze3YQ9IsxVgNnHiRJsBW+3t7YrG6Svgy976e1v+fkoDymwFuNljL0BOCFekqCF1dXXJldr9oCSgrL/sBcgJ4YqcdspmK8BMScDWw/ppQNlA1j+YAWVubm54ePT9342+AuSEcEVO25BsBZgpCdhSoq+Ar4Guf7ACyurr6+nq6mL27Nmo1WoiIiLQ6XSKA+SEcDVOe9rfXoCZrYCtmTNnKhrDVsCXvQAze+wFlCmh1+s5cOAAsbGxLFmyBKPRyFdffcXOnTsVBcgJ4WpG7d3+zhLwJYT4J6edsgkhRp9R25AcHfAlhHiQ0x5DGmqbNm1ydAlCiJ9wiV9Iw3lRphDCcVyiITkDtVqNVqt1dBkuS/afUEIakkKhoaHk5ub2eHopwOrVqykqKmL+/PmK1xUfH8+XX35JSUkJJSUlpKWlDXa5Tqev/SfE/aQhDVBLSwutra20tbUpXqasrIyUlBTefvttRY++FmK0GLUHtQdLUVERRUVFji4DrVbL3LlzCQwMpLCw0NHlCNEv0pD6oNVqWbNmDWFhYVgsFmpra3skN8bHx7N8+XI8PT0B2L17N9u2bbO+n5SURFxcHOPHjwfuPZq6sLBQ8ZXe9gLigoODefPNNwkODu5xr9u1a9cICgri8uXLdsewFYBnr/7uR1VfuHCB8vJykpOTGT9+PDU1Naxfv97u/hOiN9KQ+pCens7UqVMpLCyksrKSzMxMazgc3Jt2lZWVMWvWLH7zm988sPyxY8eoq6tDr9czceJEsrKySE1N5ezZs4qmd/cHxP3tb39jzZo1JCUlce3aNf7xj3+wYsUKxo0bx/vvv8/Vq1fJzMyks7OTjz76SFGkSXcA3qVLl3j//ffRaDS89NJL1m20V//GjRtJS0tj4cKFvPzyyxQXFxMZGWm9Ncbe/hOiN3IMqReBgYE8+eST1NTU8M0332AwGCgrK8NoNCpex+XLl6mqqsJkMtHQ0MDJkyfx9vbG19fX7rL2AuL8/f3x8/Pj6NGj1NbWWgPeQkNDeeqppxTVZysA72Hq9/Hxobq6mj179tDe3o7JZBqU/SdGJ5f4hTTcAXE5OTloNJoeYWoPKygoiPT0dIKDg60pkkoPYNsLiGtsbKS5uZmZM2ei0+kwGAxERkaiUqno6OgA/jmlul9HRwdFRUWUlZXZDMB7mPpbW1s5cuQIAHl5eQDMmjVrwPtPjE4u0ZCGOyBu1qxZA1pep9Pxzjvv4OXlxZYtWzh58iRxcXE899xzg1KfxWKhoKCA7OxsPv30UwCMRiOlpaXU1NQAsHHjxmGp32QySeSJGDQu0ZCGm9FoxGw24+fnZ33Nw8ND8UHZyZMn4+vry759+ygvL3/o8ZUExMXExNDR0cHKlSv7FVvb3NxMUFAQgYGBDyRMDrT+ge4/MXrJMaRenD9/nu+//56IiAhiYmIICgoiJSVF8UHZ1tZWTCYTAQEBaLVaoqOjiY6OxsPDA41GY/1cS0sLZrOZqVOnolarmTJlCmq1WlFA3Lhx4/Dw8LCe5XtYtgLwlNY/VPtPjF7uWq32P+19KDk5meLi4uGox2nGb2hoYObMmbz44ovMnz+fM2fO4OvrS21tLefOnSMtLY0NGzawYMECPD09efLJJ0lOTkatVvO3v/2Nzs5O/u3f/o1f/OIXhIeHc+DAAR577DFUKhUnTpwA7h3TcXNzIyYmhtdee43o6GiuXbtGXV0dp0+fZsqUKcTHx/OLX/wCLy8vioqKrMdr7ty5w5w5c/j5z39OSkoKr776KgsXLuTatWuKjt3U1dVhMBiIiYnhP/7jP3j++efp6urizJkznD592m792dnZPP/882g0GmJjY5k6dSoVFRWK958QvXGJgDZHj+9s1Gq19Vqj7uewBQQEkJWVRVdXF++++26/n2YihCPJlM0FhYSEsHbtWlJTU1Gr1QBMmDABd3d3Ojo6pBkJlyUHtV1Qd9b24sWLiYuLw83NjY6ODi5cuEBBQYGjyxOi36Qhuajt27ezfft2R5chxKCSKZsQwmlIQ1JIAsaEGHrSkBSSgDYhhp40pAGSgDYhBo8c1B4gCWgTYvBIQ+qDqwe0tbe3s3LlSsLCwvDw8MBsNnPixAm2bt3ar3vfhBgO0pD64OoBbatXryYgIIDc3FyqqqqIjo5m9uzZ1iu7hXBGcgypFyMhoM3Lywu4d6OvxWKhoqKCvLw8DAZD/3aKEMPAJX4hSUDbwwe0ff311wQFBbFhwwZu3rzJd999R2lpqUzXhFNziYYkAW09KQloO336NJmZmURERLBw4UIWLFhAVFQUH3zwwQP5R0I4C5doSMNtJAW06fV69Ho9L730EsnJyUREREhDEk5LjiH1wtUD2tRqNVlZWaxYsQKtVotWqyUiIsI6phDOSvKQ+hAcHExmZib/8i//gtlsprKykoiICHbt2kVZWRlpaWkkJCQ8sFz36f/Y2FiSk5Px8fHBYDCwb98+oqOjOXbsGFu3brV+vvtz48eP5/bt2xQWFlJRUfHAaf/m5ma++OILDh48CNybVq5cuZJHH30UNzc3LBZLj0sLEhMTefHFF5kwYQIAP/zwA3v37h3WY3FCPCxpSC5IAtrESCVTNhckAW1ipJKD2i5IAtrESCUNyUVJQJsYiWTKJoRwGtKQhBBOQ6ZsdkRERJCenk5gYCAAjY2NfPPNNzbv9BdC9I80JBtUKhUpKSl0dnaSmZmJyWQiPDycw4cPU1ZWRmBgIOvXr3dYfYsXL2bp0qV89tln6PV6h9UhxGCRhmSDv78/EyZM4MiRI9bbMw4fPuzgqv5pzJgxeHl5Kb6lRQhnJw1pCERERLBmzRoOHjxovSpbpVKxadMm2trayMnJsRvAlp2djZ+fH2vXrgXuXZm9evVqSkpK0Ov1rF+/nkmTJgGwYcMG4N4tL+vWrXPAFgsxOKQh9eHDDz9k2rRpACQkJJCQkMCNGzf4r//6L+rq6mwuq9fruXLlCiEhIahUKiwWCzNnzmTChAl8++23gO0AtmPHjtlcf319PW+99Rbx8fEkJiayefNmqqurB2fDhXAgOcvWh7Vr11pD+Hfv3k1iYiIZGRl2m1G3U6dOMWnSJEJDQwEIDw/n7t27VFdX2w1gE2K0colfSMMd0DYY982dPn2aF154gcjISGpqaggJCaGxsZHz588zY8YMmwFsQoxWLtGQhjugbTCcOnWKpqYmQkJCeOKJJ3jsscf461//6uiyhHBqMmUbIhaLhTNnzvD4448zd+5cAOtxHiUBbEq5ubn1eOqIEK5MGtIA9BWw1k2v1+Pm5sacOXO4evUq58+fB1AUwNbe3o63tzc6nQ6tVssrr7zSI9wN7h3c7urqYvbs2ajVaiIiItDpdMO3A4QYZPKf1gFoa2tj7969JCcns2PHjh4Ba3Bv2nbz5k2eeOIJa7Bat23btqHRaEhPTycjI4Pm5ma2bt1qfW7bvn37CAkJ4eOPP6ajo4Pq6mp++OGHHuvovus/NjaWJUuWYDQa+eqrr9i5c+fw7AAhBpkEtA2xZcuWMW/ePDZt2sTFixcdXY4QTk2mbENo3rx5LFiwgBMnTkgzEkIBmbINkV//+tfMmzePqqoqtmzZ4uhyhHAJ0pCGyJ/+9CcKCgrk0dVCPARpSENEHlktxMOTY0iiVyqViscff9zRZYhRRhqS6NW6detYs2aNo8sQo4w0JCGE05CGNEJotVqWLFnC66+/7uhShOg3Oajdi7S0NCIjIzGbzUybNo3jx4/j6+tLUFAQlZWVfPTRR6hUKpYtW8aiRYvQaDTcvn2bsrIy61XSOp2OlStXEhYWhoeHB2azmRMnTrB161aamprsvp+UlERcXBzjx48H6PGYbLj3qO8333yT4ODgHveyXbt2jaCgIOrq6mzWp4Snpyc5OTnMmDEDi8VCZWUl+fn5WCwWu/VlZ2czZ84cLly4QHl5ufVx4TU1NQ6N/RXOTRpSH3Q6Hbt37+bcuXO88MILlJaWcubMGebMmUNgYCBz5sxh/vz57Nixg0OHDpGYmEhsbCyNjY0cPnyY5ORkAgICyM3NpaqqiujoaGbPnm29DMDe+8eOHaOurg69Xs/EiRPJysoiNTWVs2fP8uOPP7JixQrGjRvH+++/z9WrV8nMzKSzs5OPPvoIi8XCz3/+c5v1KfHYY49x5swZfve735GamsrChQt55ZVX+N///V+b9bW1tbFx40bS0tJYuHAhL7/8MsXFxURGRtLVZffGADGKyZStD7dv3+bw4cN0dnZiMBg4dOgQ169f586dOzQ2NjJ37lzOnTvHnj17MBqN7Nq1i9bWViIiIgDw8vICoLW1FYvFQkVFBXl5edbLAey9f/nyZaqqqjCZTDQ0NHDy5Em8vb3x9fXF398fPz8/jh49Sm1tLQaDgerqakJDQ3nqqadQqVR261Oivr6egoICjEYje/bswWAwMH36dLv13c/Hx4fq6mr27NlDe3u7XJclbHKJX0jDHdC2e/dum+/7+/vj4+PDtGnTHqjr6tWrAHz99dcEBQWxYcMGbt68yXfffUdpaan1YQH23g8KCiI9PZ3g4GDGjh2LSqXi+vXrwL1HMTmGVvEAACAASURBVDU3NzNz5kx0Oh0Gg4HIyEhUKhUdHR2K6uueUt2vo6ODoqIiysrKgHsRKhaLBbjXnFpbW6053rbqu19raytHjhwBIC8vz+Z+FcIlGtJwB7SlpaUp+tzBgwfJz8/v9b3Tp0+TmZlJREQECxcuZMGCBURFRfHBBx9QX19v8/2Ojg7eeecdvLy82LJlCydPniQuLo7nnnsOuNcoCgoKyM7O5tNPPwXAaDRSWlpKTU2N9RlyturbuHHjw+4WK51OZ7O++5lMJlpaWvo9lhhdXKIhOZvGxkZaW1vR6XTWEP++6PV69Ho9L730EsnJyURERFBfX2/z/YaGBnx9fdm3bx/l5eW9rjcmJoaOjg5Wrlxp/VXVn/qUmjJlCuPHj+f8+fNMnjzZbn1C9IccQ+oHf39//vGPfxAcHMwbb7yBWq0mOjqa7OxsAgMDUavVZGVlsWLFCrRaLVqt1nrspqWlxe77ra2tmEwmAgIC0Gq1REdHEx0djYeHhzWkbdy4cXh4eFifnns/i8Visz6ldDodsbGxaDQali5dire3N8ePH1dUnxD9Ib+Q+qm4uJgxY8awaNEilixZgtls5uzZs3R1dWEymairq+PFF18kNjYWgB9++IFdu3ZZz3DZe7+kpITk5GQ+//xzDAYD+/btIzo6mrlz51JbW8uRI0eIjIwkLy8PNzc3LBZLj1PvtupTqrGxkaVLl/L6669jMpnYs2cP+/btU1Tf/ceo8vPzqaqqGtA0UYwOEtDmgtRqNUFBQVy+fNl61iogIICsrCy6urp49913B2WaJsRwkymbCwoJCWHt2rWkpqZaM7wnTJiAu7s7HR0d0oyEy5IpmwvqztJevHgxcXFxuLm50dHRwYULFygoKHB0eUL0mzQkF7V9+3a2b9/u6DKEGFQyZRNCOA1pSGJYqNVqtFqto8sQTk4akhgWoaGh5ObmEh8f7+hShBOThiSEcBrSkIQQTkPOsvXBXoAawPz583nttdfw8/PDYrHQ2NjIli1b0Ov1dgPK7AW82Xs/Ozsbd3d37ty5wzPPPINKpeL48eP8/ve/p62tze72DbQ+ewFtWq2WNWvWEBYWhsVioba2Fjc3N+v4SrZPAt5GH3etVvuf9j6UnJxMcXHxcNTjNOOvWLGC6dOn88knn/Dxxx9z7do1dDodx44dw2w2ExUVxZtvvkldXR2//e1vOXToEJMmTeL69es0NDRQUVGBWq0mPDyc4OBgSkpKsFgsmM1mKioqSExMZNGiRRQXF5OXl4darWbRokXcuHGD+vp6u+/HxMQQHh7O1atXycnJQaVS8dxzz3H9+nUuXbpkd/sGWt+PP/5ITU0Nn376KYcOHSIqKopZs2bx97//3XrT74wZM9i2bRufffYZUVFRBAQEoNfrOXfunN3126tPjEwyZeuDvQC1mJgYOjs72b59O01NTVy8eJHNmzfz7bff9lhPbwFl9gLUlAasNTU1kZubaw1oM5vNjB079qG2sz/1ge2AtsDAQJ588klqamr45ptvMBgMlJWVYTQaAR4qQE4C3kYXl5iyDXdAW2Jiot0AtYCAAG7dusXFixdtrqu3gLLAwECbAWpKAtagZ4DaTykJYOtvfWA7oG3ChAloNJoetd5P6fb1VZ8YuVyiIQ13QBvYD1hTylZAWV8BakoC1uxRemd9f+p7mIA2W5RsnwS8jS4yZbNDr9eTn59PcXExPj4+1ilFc3MzPj4+D5Uv1O2nAWoP+/5Qszd+d0Db4cOHKS8v58aNGz3eNxqNmM1m/Pz8rK95eHhYD2o7evuE85K/hl7YC1CDeweFNRoNy5cvR6vVEhwczKpVq4iKirK7fnsBaoMVsNZf9sa3F9B2/vx5vv/+eyIiIoiJiSEoKIiUlBS8vb0VrV+MXi4xZRtuSgLWKioq8PT0JCUlhc8//5y7d+9y6dIlqqqqAOwGlNkLUBuMgDVbBlLfxYsX7Qa0ffHFF2RmZpKVlYXZbKaysrLHE0nsbZ8EvI1OEtAmhHAaMmUTQjgNaUhCCKchDUkI4TSkIQkhnIY0pGEiAWVC2CcNaYBWr15NUVER8+fPt/m50RRQFh8fz5dffklJSQklJSWKH00uhDSkAep+0qySyI/RoqysjJSUFN5++23r/W3OaPHixfzhD3944IZe4ThyYeQAFRUVUVRU5OgyRD+MGTMGLy+vHjlNwrGkIfXBXkBbfHw8y5cvx9PTE4Ddu3ezbds26/IDDSizJzs7Gy8vLzw9PZk+fToWi4XKykry8/OxWCx2A9TsBbwNtD57bNUXERHBmjVrOHjwIFu3brXur02bNtHW1kZOTg5qtZpVq1bx7LPP4unpicFgoKSkhNLSUuv2+fn5sXbtWgBmzZrF6tWrKSkpQa/Xs379eiZNmgTAhg0bADh//jzr1q0blO0T/SNTtj4kJycTEBBAbm4uSUlJfPLJJ5jNZmseT/e0JCcnx5rzc7/09HSmTp1KYWEhGRkZdHR0WO/lAvjZz37G/Pnz2bFjB8uXL2f//v3ExsYSHR2tuMawsDDq6up44403OHDgAFFRUTz//PMAHDt2jM8++4xly5aRlZWF0WgkNTWVcePGWZefMWMGFouFjIwMSktLCQ8Pt96uMRj12WKrPr1ez5UrVwgJCbHefDtz5kwmTJjAqVOnAEhNTWXWrFls27aN1NRUzp07R1JSErNnz7Y7dn19PW+99RZ//OMfaWlpIScnh8TERGlGTkAaUh/sBbTZMpgBZbY0NDRQUFCAwWBg//79mEwmwsLCANsBat36CngbrPpssVffqVOnmDRpEqGhoQCEh4dz9+5dqqurefTRR3n66ac5e/Yse/fuxWQysXPnTjo7OxU1JOG8XGLK5owBbbYMRkCZkoC1+wParl27htFotCZG2gpQ69ZXwNtg1WeLvfpOnz7NCy+8QGRkJDU1NYSEhNDY2Mj58+eZMWMGGo2GxsZG6+e7t/+RRx6xO7ZwXi7RkFw5oM0WWwFlA7mzfTgC1Ia6vlOnTtHU1ERISAhPPPEEjz32GH/961/7PaZwDTJls6OvgDZbHBFQNnnyZDQaDbdu3bIboGbPUAeoKanPYrFw5swZHn/8cebOnQtAdXU1ADdv3sRoNOLv799jnd3b/zDc3Nzw8HCJ/y6PCtKQeqEkoM2W4Qoo0+l0xMbGotFoiIuLw9PTE71ebzdAzZ7Bqq+lpQWz2czUqVNRq9VMmTIFtVqtuD69Xo+bmxtz5szh6tWrnD9/Hrh3Ru7kyZOEhoayePFi1Go1r776Ku7u7hw9ehSA9vZ2vL290el0aLVaXnnllQe2vb6+nq6uLmbPno1arSYiIgKdTqd4+8Tgk/809EJJQFtaWhoJCQnWZRISEkhISLCe/h9oQJkS7e3tLF26lNdff50ff/yR0tJSa332AtTsGYz62tra2Lt3L8nJyezYsYPbt29TWFhIRUWFovpOnTrFzZs3eeKJJzh48GCPdW/btg2NRkN6ejoZGRk0NzezdetW62UN+/btIyQkhI8//piOjg6qq6v54YcfeqxDr9dz4MABYmNjWbJkCUajka+++mrQLm0QD08C2lzUT6+zGamWLVvGvHnz2LRpk90nvAjXJ1M24bTmzZvHggULOHHihDSjUUKmbC6qq6uLO3fuOLqMIfPrX/+aefPmUVVVxZYtWxxdjhgm0pBc1KZNmxxdwpD605/+REFBgTypdpSRhiSckpIr4sXII8eQhBBOQxrSEOstwO1hAsyUBsAN1fJCDCdpSAOgJOCrtwC3hwkwsxUA19/xhXBWcgxpAJQEfA00wM3W8sMxvhDDSRpSHwYa8GUvwM0eW8sHBgYOeHx7AWz2AuqEGArSkPqhO+ArPj6exMRENm/ebL3xs1tZWRllZWXMmjWL3/zmNw89hq3lB2P8+wPYDh06RGJiIrGxsTQ2NnL48OEeAXVVVVVER0cze/ZsOQ0vhpQcQxqFlASwDSSgToj+colfSKdPnx72gLaRTEkA20AC6oToL5doSO+9956jSxiRbAWwDUdAnRA/JVO2AXJ0wFd/xn+YALb+BNQJ0V/SkPowHAFffQWYKdXf8e0FsA00oE6I/nKJPCRHCA8PZ9WqVfj6+loDvqZPn249e9Vt2bJlxMbGMnbs2B4BXz8NcOv209PvsbGxJCcnM378+B4BZkqX7+/4Pz3t3x3AVlhYSENDA4mJibz44otMmDABuBdQt3fv3mE9lidGH2lIQginIVM2IYTTkIYkhHAa0pCEEE5DGpIQwmlIQxJCOA1pSAMkAWhCDJ5R3ZCUBJzZIwFoQgwel7iXbagoCTizRwLQhBg8Tt2Q5s+fz2uvvYafnx8Wi4XGxka2bNmCXq9HrVazatUqnn32WTw9PTEYDJSUlFBaWgrcC1hzd3fnzp07PPPMM6hUKo4fP87vf/97fH197QacJSUlERcXx/jx44F7z5MvLCy0PqrZXgCarfHb2trsBqRlZ2czZ84cLly4QHl5ufVq7pqaGtavXy8BamJEctdqtf9p70PJyckUFxcPRz1WUVFRvPnmm9TV1fHb3/6WQ4cOMWnSJK5fv05DQwNpaWn867/+K9u3byc3N5eQkBD+7d/+jYaGBq5cuUJMTAzh4eFcvXqVnJwcVCoVzz33HNevX6e6uprS0lLa2tqYOnUqv/vd79i8eTN//etfreP/+OOP1NTU8Omnn3Lo0CGioqKYNWsWf//73+no6ODcuXP8+c9/pra2lmeffZaLFy/2CEmzNf6lS5dITExk0aJFFBcXk5eXh1qtZtGiRdy4cYP6+noqKipQq9WEh4cTHBxMSUkJFosFs9lMRUUFK1asYPr06XzyySd8/PHHXLt2DZ1Ox7FjxzCbzcP6XQkxWJz2GFJMTAydnZ1s376dpqYmLl68yObNm/n222959NFHefrppzl79ix79+7FZDKxc+dOOjs7mT17tnUdTU1N5ObmYjAYqK6uxmw2M3bsWEXjX758maqqKkwmEw0NDZw8eRJvb298fX0Vb0Nf4ysJSOvm4+NDdXU1e/bsob293ZrYKAFqYiRSNGVzc3Mb9oC0gIAAbt261esz3SdOnIhGo6GxsdH62rVr1zAajTzyyCPW1ywWCxaLpV81BAUFkZ6eTnBwsLWJ2HtCyE/1Nb6SgLRura2tHDlyBIC8vDzr6xKgJkYiRQ2pq6trVN1cq9PpeOedd/Dy8mLLli2cPHmSuLg4nnvuuUEdx1ZAWjeTydRr5IcEqImRyGmnbM3Nzfj4+BAYGPjAezdv3sRoNOLv7299bfLkyWg0Gm7duvVQ4/QWcDZ58mR8fX05fPgw5eXl3Lhxo38b0YeHCUizRwLUxEjitA2poqICjUbD8uXL0Wq1BAcHs2rVKqKiorhx4wYnT54kNDSUxYsXo1arefXVV3F3d+fo0aOKx+gr4Ky1tRWTyURAQABarZbo6Giio6Px8PB4IKStP+wFpNkjAWpipHLa0/4VFRV4enqSkpLC559/zt27d7l06RJVVVUAbNu2DY1GQ3p6OhkZGTQ3N7N161braXkl9Ho9Bw4cIDY2liVLlvQIOCspKSE5OZnPP/8cg8HAvn37iI6OZu7cudTW1j4QgJaQkEBCQoLi568VFxczZswYFi1axJIlS6wBaV1d9+Kpuk/7A+Tn51NVVcXGjRuBe9O4uro6XnzxRWJjY4F7AWq7du3i8OHDirdfCGcjAW1CCKfhtFM2IcToIw1JCOE0pCEJIZyGNCQhhNNwmYakVqvRarWOLkMIMYRcpiGFhoaSm5tLfHz8oK5XAtaEcB4u05CGigSsCeE8nPbCyOGiNGBNq9Uyd+5cAgMDKSwsHIbKhBh9nLYhabVa1qxZQ1hYGBaLhdra2h7JjvYCzuwFmNkLWAsODubNN98kODi4x71u165dIygoiJSUFJsBbEKIh+e0U7b09HSmTp1KYWEhGRkZdHR04O3tbX3/Zz/7GfPnz2fHjh0sX76c/fv3ExsbS3R0NHAvVC4gIIDc3FySkpL45JNPMJvN1jyhsrIyUlJSyMnJwWg09hhbpVKxYsUKxo0bx/vvv096ejrHjh3j22+/5Ve/+hWXL18GYMaMGVgsFjIyMigtLSU8PNx6u4cQ4uE5ZUMKDAzkySefpKamhm+++QaDwUBZWZm1cSgJOBtIgJm/vz9+fn4cPXqU2tpaa8BaaGgoTz31lPVzAwmAE0I8yCkD2nJyctBoNA+ElXVTEnA2kACzxsZGmpubmTlzJjqdDoPBQGRkJCqVio6ODuvnBhIAJ4R4kFMGtM2aNUvR52wFnA0kwMxisVBQUEB2djaffvopAEajkdLSUmpqah5uY4QQijnlQW2j0YjZbMbPz8/6moeHh/Wg9k8Dzmz9StHr9ej1el566SWSk5OJiIhQlKgYExNDR0cHK1eulFhYIYaJUx5DOn/+PN9//z0RERHExMRYz2p1H9S2F3A2GAFm48aNw8PDw3oWTggx9JzyFxLAF198QWZmJllZWZjNZiorK3s88cNWwJmSADN7AWtHjhwhMjKSvLw83NzcsFgsDzybTQgxuCSgrRdqtZqgoCAuX75svUwgICCArKwsurq6ePfdd+VgthBDwCmnbI4WEhLC2rVrSU1NRa1WAzBhwgTc3d3p6OiQZiTEEHHaKZsjdWdtL168mLi4ONzc3Ojo6ODChQsUFBQ4ujwhRixpSH3Yvn0727dvd3QZQowqLjFlG86LMoUQjuMSDWm0GjdunKNLEGJYSUNyUtnZ2WzYsMHu5yRgTowk0pBcnATMiZFEDmor5KwBbUoD5oRwBdKQ+qAkoG3OnDlcuHCB8vJykpOTGT9+PDU1Naxfv56kpCTi4uIYP348wANXeWdnZ+Pl5YWnpyfTp0/HYrFQWVlJfn6+9TonDw8P1q1b12sAnL2AOYD58+fz2muv4efnh8ViobGxkS1btqDX6+0G2AnhCDJl64WSgLaNGzeye/duHn30UV5++WWKi4s5evQora2tABw7dozPPvuMZcuWkZWVhdFoJDU1tceB6rCwMOrq6njjjTc4cOAAUVFRPP/889b3/f39rQFwf/nLX5gxY4Y1AM5WwBxAVFQUv/zlL2lsbCQzM5Ps7GwuXbpkvR/QXoCdEI4gDakXSgPaAHx8fKiurmbPnj20t7db/0FfvnyZqqoqTCYTDQ0NnDx5Em9v7x734zU0NFBQUIDBYGD//v2YTCbCwsKs79fX11sD4Gpra7lz547iALiYmBg6OzvZvn07TU1NXLx4kc2bN/Ptt98CAwuwE2KouMSUbbgD4pKSkhQFtMG9f9BHjhwBIC8vz/p6UFAQ6enpBAcHM3bsWFQqFdevX++x7P0Bb9euXcNoNPZoOAMJgAsICODWrVtcvHix1/cHEmAnxFBxiYY03AFxgOKANpPJ9ECkiU6n45133sHLy4stW7Zw8uRJ4uLieO6554atfnsGEmAnxFBxiYbkCAMJaJs8eTK+vr7s27eP8vJyxctoNBpu3brVn3If0NzcTFBQEIGBgTYbTH8D7IQYCnIMqQ8DCWhrbW3FZDIREBCAVqslOjqa6OhoPDw80Gg01s/pdDpiY2PRaDTExcXh6emJXq8flPorKirQaDQsX74crVZLcHAwq1atIioqalAC7IQYCvILqQ/2Atqys7OtZ7zy8/Opqqpi48aNAFy8eJGSkhKSk5P5/PPPMRgM7Nu3j+joaObOnUttbS0A7e3tLF26lNdff50ff/yR0tJSa4CcPfYC5ioqKvD09CQlJYXPP/+cu3fvcunSJeuBdnsBdkI4gksEtA33+MMR0JadnY2fnx9r164djJKFGBFkytYLCWgTwjFkytaL4Qho6+rq4s6dO4OyLiFGCmlIfRjqgLZNmzYN2bqFcFUyZRNCOA1pSEIIpyENyQ4JQBNi+EhDskMC0IQYPnJQ2w4JQBNi+EhD6sNAA9DUajWrVq3i2WefxdPTE4PBQElJCaWlpcC9CyPd3d25c+dOrwFsEqAmRiOZsvVhoAFoqampzJo1i23btpGamsq5c+dISkpi9uzZ1nXMmDHDGsBWWlpKeHi49XYUCVATo5E0pH6yFYD26KOP8vTTT3P27Fn27t2LyWRi586ddHZ29mhITU1N1gC26upqzGazNQ9JAtTEaOQSU7bTp08Pa0CbkvvmbAWgTZw4EY1GQ2Njo/W17gC2Rx55xPqarQA2CVATo5FLNKT33nvP0SUMOwlQE6ORTNn6qbm5GR8fHwIDAx947+bNmxiNRvz9/a2v9TeATa/Xk5+fT3FxMT4+PtbcIiFGImlI/WQrAO3GjRucPHmS0NBQFi9ejFqt5tVXX8Xd3Z2jR4/aXbcEqInRyiWmbI4wkAA0gG3btqHRaEhPTycjI4Pm5ma2bt1qfS6bLRKgJkYrlwhoE0KMDjJlE0I4DWlIQginIQ1JCOE0pCEpMJwXZQoxmklDEoqo1Wq0Wq2jyxAjnDQkFxQfH8+XX35JSUkJJSUlpKWlDfmYoaGh5ObmEh8fP+RjidFLGpIL6k4iePvtt7l+/bqjyxFi0EhDEkI4DblS24nZCoCzR0lA3P1Pzp01axarV6+mpKSEsrIytFota9asISwsDIvFQm1tLW5ubkO6vULILyQnZS8Azh4lAXG2pKenM3XqVAoLC8nIyKCjo0Px2EL0lzQkJ2UrAM4epQFxfQkMDOTJJ5+kpqaGb775BoPBQFlZWa/JmUIMJpmyKeDm5jbsAXG2AuDsURoQ15cJEyag0Wi4evXqQ48txEBIQ1Kgq6tLbi4WYhjIlM1J2QqAs2egAXFGoxGz2Yyfn5/1NQ8PDzmoLYacNCQnZSsArltLSwtms5mpU6eiVquZMmUKarVaUUBce3s73t7e6HQ6tFotr7zyChqNBoDz58/z/fffExERQUxMDEFBQaSkpMhBbTHkZMrmpOwFwAG0tbWxd+9ekpOT2bFjB7dv36awsJCKigq7AXH79u0jJCSEjz/+mI6ODqqrq/nhhx+s6/7iiy/IzMwkKysLs9lMZWUlvr6+w74fxOgiAW0KjPbtF2K4yJRNCOE0pCEJIZyGNCQhhNOQhiSEcBrSkIQQTkMakhDCaUhDGsUWL17MH/7wB3k8t3Aa0pBGsTFjxuDl5SW3hAinIVdqOzFbAW32AtZ0Oh0rV64kLCwMDw8PzGYzJ06cYOvWrXh6erJ+/XomTZoEwIYNG4B7t4ysW7cOsB3wlpaWRmRkJGazmWnTpnH8+HF8fX0JCgqisrKSjz76yDE7TLg8aUhOqjug7dKlS7z//vtoNBpeeuklxfeTJScnExAQQG5uLlVVVURHRzN79mxMJhNNTU289dZbxMfHk5iYyObNm6muru6x/P0Bb3/7299Ys2YNSUlJXLt2DQCdTsfu3bs5d+4cL7zwAqWlpZw5c4Y5c+YQGBhIfX39oO8TMfLJlM1JDSSgDcDLywuA1tZWLBYLFRUV5OXlYTAY7C6rJODt9u3bHD58mM7OTgwGA4cOHeL69evcuXOn/xstRj35haTA6dOnXSqgDeDrr78mKCiIDRs2cPPmTb777jtKS0tpamqyu6y9gLf29vZ+1SSEPdKQFHjvvfccXcJDO336NJmZmURERLBw4UIWLFhAVFQUH3zwgUynhNOSKZuTGkhA2/30ej35+fkUFxfj4+PzwCl+Nzc3PDx6/ndpoAFvQvSXNCQnZS+gzVbAmlqtJisrixUrVqDVatFqtdZG1NLSYh2jvr6erq4uZs+ejVqtJiIiAp1OpyjgTYihIFM2J2UvoM1WwJrJZKKuro4XX3yR2NhYAH744Qd27drF4cOHrWPo9XoOHDhAbGwsS5YswWg08tVXX7Fz506bAW8zZ84c/h0iRgUJaBNCOA2ZsgkhnIY0JCGE05CGJIRwGtKQhBBOw6kb0rhx4xxdghBiGDntaf+f3s3+MOLj41m+fDmenp4A7N69m23btg12iUKIQebUv5D6q6ysjJSUFN5++22uX7/u6HKEEAqNyIYkhHBNTjtlA/Dw8GDdunU888wzqFQqjh8/zu9//3va2tpQqVQsW7aMRYsWodFouH37NmVlZezcuVPRurOzs/Hy8sLT05Pp06djsViorKwkPz8fi8Vid/3Z2dnMmTOHCxcuUF5eTnJyMuPHj6empob169fbDEhTcse9EKORU/9C8vf3x2KxkJGRwV/+8hdmzJjBnDlzAPjZz37G/Pnz2bFjB8uXL2f//v3ExsYSHR2teP1hYWHU1dXxxhtvcODAAaKionj++ecVrX/jxo3s3r2bRx99lJdffpni4mKOHj1Ka2sr0DMgLSkpiU8++QSz2YzJZBrkvSTEyOHUDam+vp7c3FwMBgO1tbXcuXOHsWPHolKpmDt3LufOnWPPnj0YjUZ27dpFa2vrQwXWNzQ0UFBQgMFgYP/+/ZhMJsLCwh5q/T4+PlRXV7Nnzx7a29utDWcgAWlCjFaKpmxubm7DHlAGYLFYsFgsD7zv7++Pj48P06ZNe6Cuq1evKh7n/vV3B5CNHTv2odbf2trKkSNHAMjLy7O+PpCANCFGK0UNqauryylvrj148CD5+fkOXb/JZOoR6dFNAtKEeHhOPWXrS2NjI62treh0OlSqwdmE+wPIBnP99gLShBD/5JINyWKx8I9//IPg4GDeeOMN1Go10dHRZGdn90hYbGlpwWw2M3XqVNRqNVOmTEGtVlvf1+l0xMbGotFoiIuLw9PTE71er3j9fVEakCaE6MmpT/vbUlxczJgxY1i0aBFLlizBbDZz9uxZurr+Ge/U1tbG3r17SU5OZseOHdy+fZvCwkIqKiqAe6mLS5cu5fXXX+fHH3+ktLTUGmBmb/3dp/0B8vPzqaqqYuPGjYDygDQhRE+jNqBtILemCCGGhktO2YQQI9OobUhdXV3yUEMhnIzLHkMaqE2bNjm6BCHET4zaX0hCCOczYhuSSqXi8ccfd3QZiqnV3WgpqQAABcNJREFUarRaraPLEMKhRmxDWrduHWvWrLH7udWrV1NUVMT8+fOtr8XHx/Pll19SUlJCSUkJaWlpQ1kqAKGhoeTm5hIfHz+o6+1t+4RwViO2ISnV0tJCa2srbW1t1tdGUsBbb9snhLMatQe1uxUVFVFUVOToMoaM0u3TarXMnTuXwMBACgsLh6EyIR7klA0pLS2NyMhIzGYz06ZN4/jx4/j6+hIUFERlZSUfffQRarWaVatW8eyzz+Lp6YnBYKCkpITS0lLrejw9PcnJyWHGjBkPBLANNHd7oAFxWq2WNWvWEBYWhsVioba2Fjc3N8XrtxcAZ2/7goODefPNNwkODsbD459/BteuXSMoKIiUlBTc3d25c+dOrwF5QgwFp52y6XQ6jh8/zt69e3nqqac4ceIEX3/9NdOmTSMwMJDU1FRmzZrFtm3bSE1N5dy5cyQlJTF79mzrOh577DGuXLlCeno65eXlzJkzh1deeQX457QsJycHo9H40PUNNCAuPT2dqVOnUlhYSEZGBh0dHXh7eytev70AOFvbp1KpWLFiBePGjeP9998nPT2dY8eO8e233/KrX/2Ky5cvA1gbeUZGBqWlpYSHh1tvlxFiKDhtQ7p9+zaHDx+ms7MTg8HAoUOHuH79Onfu3MFkMvH0009z9uxZ9u7di8lkYufOnXR2dvZoSPX19RQUFGA0GtmzZw8Gg4Hp06cPuLaBBsQFBgby5JNPUlNTwzfffIPBYKCsrMzaOJSsfyABcP7+/vj5+XH06FFqa2sxGAxUV1cTGhrKU089Zf1cU1OTNSCvuroas9nM2LFj+7PLhFBE0ZTt9OnTwxrQtnv3bpvvT5w4EY1GQ2Njo/W17oC1Rx55xPra/QFs9fX1tLa2MmnSpAHXpyTA7f6bb7t1dHRQVFREQ0MDGo2mzzA5JesfSABcY2Mjzc3NzJw5E51Oh8FgIDIyEpVKRUdHh/VzfQXkCTFUFDWk9957b6jr6GE4TrMPBlsBbt13/vdm1qxZA17/QALgLBYLBQUFZGdn8+mnnwJgNBopLS2lpqZGUW1CDAWnPKhtz82bNzEajfj7+1tfuz9grTdTpkxh/PjxnD9/fsDj/zTA7WF/RRiNRsxmM35+ftbXPDw8rAe1H2b9er0evV7PSy+9RHJyMhEREYoSKWNiYujo6GDlypUSqyuchtMeQ7JFrVZz8uRJQkNDWbx4MWq1mldffRV3d3eOHj1q/dz9AWxLly7F29ub48ePKx6nr4C3gQa4nT9/nu+//56IiAhiYmKsZ7W6D2rbW/9gBMCNGzcODw8P61k4IZyBS/5CAti2bRsajYb09HQyMjJobm5m69atfPfdd9bPNDY2WgPYTCYTe/bsYd++fcC9aWFCQoL1swkJCSQkJPQ4PW4r4E1JQJwtX3zxBZmZmWRlZWE2m6msrMTX19f6vq31KwmAs7d9R44cITIykry8PNzc3LBYLNy4cYPCwsIe+1CI4aQooE2MLGq1mqCgIC5fvmy9TCAgIICsrCy6urp499135WC2cAiXnLKJgQkJCWHt2rWkpqZaM8YnTJiAu7s7HR0d0oyEw8gvpFFq2bJlLF68GI1Gg5ubGx0dHVy4cIGCggLrhZFCDDdpSEIIpyFTNiGE03DJhhQUFMQvf/lLdDqdo0vplaPrc/T4Q80Zti8wMJCIiIgez/lzFkr3z7hx4/o9xlAFILpkQxo3bhwxMTH8+7//u6NL6ZWj6xvq8e0F2A11wJ2j9y9Aamoqy5cvt56ldCZK9k92djYbNmzo9xhKAxAfVp/XIf30Opb29nbOnTtHYWHh/6/m3G0ABoEY6kVoGYERqJmBNViE5sYwayAhxASsQJ8qFCkiUuT3yjudfHJvo/cOrTW897O+YoyBnDNEZCngeazH2CEJETm9rbWitQZjDFJKS3pP8vZ/d+uTBEkopRBCuLxfxVoL5xxijCilzPnb/n6dP/uzAbKonzOaLeflAAAAAElFTkSuQmCC;" parent="QDc9LdpgYNUI8fUYREYU-1" vertex="1">
          <mxGeometry x="-84.89000000000001" y="756" width="221.75" height="262" as="geometry" />
        </mxCell>
        <mxCell id="heKhTewwlS7iGbR-PwLU-2" style="edgeStyle=orthogonalEdgeStyle;rounded=0;orthogonalLoop=1;jettySize=auto;html=1;exitX=0.5;exitY=1;exitDx=0;exitDy=0;entryX=0.5;entryY=0;entryDx=0;entryDy=0;" edge="1" parent="QDc9LdpgYNUI8fUYREYU-1" source="heKhTewwlS7iGbR-PwLU-0" target="MSlTlb2QynzkavZNL3xy-14">
          <mxGeometry relative="1" as="geometry">
            <mxPoint x="5" y="608" as="targetPoint" />
          </mxGeometry>
        </mxCell>
        <mxCell id="heKhTewwlS7iGbR-PwLU-0" value="shared-components" style="rounded=0;whiteSpace=wrap;html=1;" vertex="1" parent="QDc9LdpgYNUI8fUYREYU-1">
          <mxGeometry x="-34.010000000000005" y="354" width="120" height="40" as="geometry" />
        </mxCell>
        <mxCell id="heKhTewwlS7iGbR-PwLU-9" style="edgeStyle=orthogonalEdgeStyle;rounded=0;orthogonalLoop=1;jettySize=auto;html=1;exitX=0.5;exitY=1;exitDx=0;exitDy=0;entryX=0.25;entryY=0;entryDx=0;entryDy=0;" edge="1" parent="QDc9LdpgYNUI8fUYREYU-1" source="heKhTewwlS7iGbR-PwLU-3" target="MSlTlb2QynzkavZNL3xy-14">
          <mxGeometry relative="1" as="geometry" />
        </mxCell>
        <mxCell id="heKhTewwlS7iGbR-PwLU-3" value="helpers" style="rounded=0;whiteSpace=wrap;html=1;" vertex="1" parent="QDc9LdpgYNUI8fUYREYU-1">
          <mxGeometry x="-199" y="354" width="120" height="40" as="geometry" />
        </mxCell>
        <mxCell id="heKhTewwlS7iGbR-PwLU-6" value="" style="group" vertex="1" connectable="0" parent="QDc9LdpgYNUI8fUYREYU-1">
          <mxGeometry x="390" y="732" width="132.5" height="50" as="geometry" />
        </mxCell>
        <mxCell id="gOgx4db88yZDLvZz5aSS-0" value="wallet.html" style="verticalLabelPosition=bottom;verticalAlign=top;align=center;strokeColor=none;fillColor=#00BEF2;shape=mxgraph.azure.cloud_services_configuration_file;pointerEvents=1;rounded=1;shadow=0;glass=0;sketch=0;labelPosition=center;" parent="heKhTewwlS7iGbR-PwLU-6" vertex="1">
          <mxGeometry width="47.5" height="50" as="geometry" />
        </mxCell>
        <mxCell id="gOgx4db88yZDLvZz5aSS-2" value="wallet.bundle.js" style="verticalLabelPosition=bottom;verticalAlign=top;align=center;strokeColor=none;fillColor=#00BEF2;shape=mxgraph.azure.code_file;pointerEvents=1;fontSize=12;fontColor=#000000;startSize=30;" parent="heKhTewwlS7iGbR-PwLU-6" vertex="1">
          <mxGeometry x="85" width="47.5" height="50" as="geometry" />
        </mxCell>
      </root>
    </mxGraphModel>
  </diagram>
</mxfile>
